NotoSans-VariableFont_wdth,wght-W900.ufo
<glyph name="exclam" format="2">
  <unicode hex="0021" />
  <advance width="290" />
  <outline>
    <contour>
      <point x="226" y="252" type="line" />
      <point x="65" y="252" type="line" />
      <point x="40" y="714" type="line" />
      <point x="251" y="714" type="line" />
    </contour>
    <contour>
      <point x="42" y="81" type="qcurve" />
      <point x="42" y="132" />
      <point x="103" y="175" />
      <point x="145" y="175" type="qcurve" />
      <point x="185" y="175" />
      <point x="246" y="132" />
      <point x="246" y="81" type="qcurve" />
      <point x="246" y="31" />
      <point x="185" y="-12" />
      <point x="145" y="-12" type="qcurve" />
      <point x="103" y="-12" />
      <point x="42" y="31" />
    </contour>
  </outline>
</glyph>
<glyph name="dollar" format="2">
  <unicode hex="0024" />
  <advance width="577" />
  <outline>
    <contour>
      <point x="242" y="22" type="line" />
      <point x="178" y="24" />
      <point x="84" y="45" />
      <point x="42" y="63" type="qcurve" />
      <point x="42" y="216" type="line" />
      <point x="89" y="195" />
      <point x="196" y="170" />
      <point x="242" y="166" type="qcurve" />
      <point x="242" y="289" type="line" />
      <point x="180" y="307" />
      <point x="82" y="357" />
      <point x="26" y="438" />
      <point x="26" y="502" type="qcurve" />
      <point x="26" y="563" />
      <point x="80" y="643" />
      <point x="177" y="687" />
      <point x="242" y="691" type="qcurve" />
      <point x="242" y="760" type="line" />
      <point x="334" y="760" type="line" />
      <point x="334" y="692" type="line" />
      <point x="395" y="689" />
      <point x="495" y="663" />
      <point x="535" y="646" type="qcurve" />
      <point x="492" y="512" type="line" />
      <point x="455" y="528" />
      <point x="374" y="547" />
      <point x="334" y="551" type="qcurve" />
      <point x="334" y="430" type="line" />
      <point x="404" y="409" />
      <point x="502" y="362" />
      <point x="554" y="289" />
      <point x="554" y="230" type="qcurve" />
      <point x="554" y="149" />
      <point x="448" y="36" />
      <point x="334" y="24" type="qcurve" />
      <point x="334" y="-58" type="line" />
      <point x="242" y="-58" type="line" />
    </contour>
    <contour>
      <point x="334" y="168" type="line" />
      <point x="363" y="173" />
      <point x="391" y="195" />
      <point x="391" y="214" type="qcurve" />
      <point x="391" y="227" />
      <point x="381" y="245" />
      <point x="356" y="259" />
      <point x="334" y="266" type="qcurve" />
    </contour>
    <contour>
      <point x="242" y="550" type="line" />
      <point x="224" y="549" />
      <point x="200" y="538" />
      <point x="187" y="521" />
      <point x="187" y="509" type="qcurve" />
      <point x="187" y="497" />
      <point x="198" y="478" />
      <point x="222" y="464" />
      <point x="242" y="457" type="qcurve" />
    </contour>
  </outline>
</glyph>
<glyph name="ampersand" format="2">
  <unicode hex="0026" />
  <advance width="799" />
  <outline>
    <contour>
      <point x="330" y="723" type="qcurve" />
      <point x="398" y="723" />
      <point x="495" y="683" />
      <point x="548" y="607" />
      <point x="548" y="553" type="qcurve" />
      <point x="548" y="491" />
      <point x="476" y="401" />
      <point x="419" y="366" type="qcurve" />
      <point x="516" y="274" type="line" />
      <point x="533" y="300" />
      <point x="560" y="365" />
      <point x="567" y="401" type="qcurve" />
      <point x="765" y="401" type="line" />
      <point x="749" y="328" />
      <point x="685" y="194" />
      <point x="648" y="150" type="qcurve" />
      <point x="804" y="0" type="line" />
      <point x="557" y="0" type="line" />
      <point x="509" y="50" type="line" />
      <point x="482" y="33" />
      <point x="429" y="6" />
      <point x="354" y="-10" />
      <point x="294" y="-10" type="qcurve" />
      <point x="211" y="-10" />
      <point x="95" y="46" />
      <point x="35" y="141" />
      <point x="35" y="198" type="qcurve" />
      <point x="35" y="241" />
      <point x="66" y="313" />
      <point x="125" y="372" />
      <point x="168" y="394" type="qcurve" />
      <point x="148" y="417" />
      <point x="119" y="466" />
      <point x="104" y="521" />
      <point x="104" y="553" type="qcurve" />
      <point x="104" y="603" />
      <point x="155" y="679" />
      <point x="256" y="723" />
    </contour>
    <contour>
      <point x="272" y="289" type="line" />
      <point x="258" y="279" />
      <point x="240" y="254" />
      <point x="232" y="227" />
      <point x="232" y="212" type="qcurve" />
      <point x="232" y="181" />
      <point x="276" y="142" />
      <point x="312" y="142" type="qcurve" />
      <point x="340" y="142" />
      <point x="382" y="157" />
      <point x="393" y="166" type="qcurve" />
    </contour>
    <contour>
      <point x="327" y="598" type="qcurve" />
      <point x="307" y="598" />
      <point x="276" y="574" />
      <point x="276" y="547" type="qcurve" />
      <point x="276" y="525" />
      <point x="302" y="487" />
      <point x="319" y="471" type="qcurve" />
      <point x="347" y="487" />
      <point x="376" y="531" />
      <point x="376" y="553" type="qcurve" />
      <point x="376" y="577" />
      <point x="348" y="598" />
    </contour>
  </outline>
</glyph>
<glyph name="parenleft" format="2">
  <unicode hex="0028" />
  <advance width="359" />
  <outline>
    <contour>
      <point x="36" y="284" type="qcurve" />
      <point x="36" y="366" />
      <point x="62" y="527" />
      <point x="123" y="674" />
      <point x="173" y="734" type="qcurve" />
      <point x="332" y="734" type="line" />
      <point x="265" y="640" />
      <point x="204" y="404" />
      <point x="204" y="285" type="qcurve" />
      <point x="204" y="208" />
      <point x="230" y="50" />
      <point x="287" y="-97" />
      <point x="331" y="-158" type="qcurve" />
      <point x="173" y="-158" type="line" />
      <point x="123" y="-99" />
      <point x="62" y="45" />
      <point x="36" y="204" />
    </contour>
  </outline>
</glyph>
<glyph name="parenright" format="2">
  <unicode hex="0029" />
  <advance width="359" />
  <outline>
    <contour>
      <point x="323" y="284" type="qcurve" />
      <point x="323" y="204" />
      <point x="297" y="45" />
      <point x="237" y="-99" />
      <point x="186" y="-158" type="qcurve" />
      <point x="28" y="-158" type="line" />
      <point x="73" y="-97" />
      <point x="129" y="50" />
      <point x="155" y="208" />
      <point x="155" y="285" type="qcurve" />
      <point x="155" y="364" />
      <point x="129" y="523" />
      <point x="72" y="672" />
      <point x="27" y="734" type="qcurve" />
      <point x="186" y="734" type="line" />
      <point x="237" y="674" />
      <point x="297" y="527" />
      <point x="323" y="366" />
    </contour>
  </outline>
</glyph>
<glyph name="comma" format="2">
  <unicode hex="002C" />
  <advance width="309" />
  <outline>
    <contour>
      <point x="250" y="135" type="line" />
      <point x="241" y="99" />
      <point x="213" y="-1" />
      <point x="181" y="-102" />
      <point x="164" y="-139" type="qcurve" />
      <point x="28" y="-139" type="line" />
      <point x="38" y="-93" />
      <point x="56" y="8" />
      <point x="72" y="106" />
      <point x="76" y="146" type="qcurve" />
      <point x="243" y="146" type="line" />
    </contour>
  </outline>
</glyph>
<glyph name="hyphen" format="2">
  <unicode hex="002D" />
  <advance width="318" />
  <outline>
    <contour>
      <point x="21" y="192" type="line" />
      <point x="21" y="344" type="line" />
      <point x="297" y="344" type="line" />
      <point x="297" y="192" type="line" />
    </contour>
  </outline>
</glyph>
<glyph name="period" format="2">
  <unicode hex="002E" />
  <advance width="289" />
  <outline>
    <contour>
      <point x="42" y="81" type="qcurve" />
      <point x="42" y="132" />
      <point x="103" y="175" />
      <point x="146" y="175" type="qcurve" />
      <point x="187" y="175" />
      <point x="246" y="132" />
      <point x="246" y="81" type="qcurve" />
      <point x="246" y="31" />
      <point x="187" y="-12" />
      <point x="146" y="-12" type="qcurve" />
      <point x="103" y="-12" />
      <point x="42" y="31" />
    </contour>
  </outline>
</glyph>
<glyph name="zero" format="2">
  <unicode hex="0030" />
  <advance width="586" />
  <outline>
    <contour>
      <point x="551" y="356" type="qcurve" />
      <point x="551" y="269" />
      <point x="524" y="135" />
      <point x="462" y="40" />
      <point x="365" y="-10" />
      <point x="293" y="-10" type="qcurve" />
      <point x="204" y="-10" />
      <point x="89" y="78" />
      <point x="35" y="241" />
      <point x="35" y="356" type="qcurve" />
      <point x="35" y="472" />
      <point x="84" y="636" />
      <point x="198" y="724" />
      <point x="292" y="724" type="qcurve" />
      <point x="382" y="724" />
      <point x="496" y="637" />
      <point x="551" y="472" />
    </contour>
    <contour>
      <point x="227" y="356" type="qcurve" />
      <point x="227" y="285" />
      <point x="238" y="192" />
      <point x="266" y="144" />
      <point x="293" y="144" type="qcurve" />
      <point x="320" y="144" />
      <point x="348" y="191" />
      <point x="359" y="285" />
      <point x="359" y="356" type="qcurve" />
      <point x="359" y="427" />
      <point x="348" y="522" />
      <point x="320" y="570" />
      <point x="293" y="570" type="qcurve" />
      <point x="266" y="570" />
      <point x="238" y="522" />
      <point x="227" y="427" />
    </contour>
  </outline>
</glyph>
<glyph name="one" format="2">
  <unicode hex="0031" />
  <advance width="586" />
  <outline>
    <contour>
      <point x="460" y="0" type="line" />
      <point x="264" y="0" type="line" />
      <point x="264" y="353" type="line" />
      <point x="264" y="363" />
      <point x="264" y="415" />
      <point x="266" y="479" />
      <point x="267" y="504" type="qcurve" />
      <point x="254" y="489" />
      <point x="233" y="467" />
      <point x="222" y="458" type="qcurve" />
      <point x="141" y="391" type="line" />
      <point x="41" y="514" type="line" />
      <point x="286" y="714" type="line" />
      <point x="460" y="714" type="line" />
    </contour>
  </outline>
</glyph>
<glyph name="two" format="2">
  <unicode hex="0032" />
  <advance width="586" />
  <outline>
    <contour>
      <point x="548" y="0" type="line" />
      <point x="30" y="0" type="line" />
      <point x="30" y="127" type="line" />
      <point x="204" y="303" type="line" />
      <point x="258" y="360" />
      <point x="319" y="428" />
      <point x="343" y="476" />
      <point x="343" y="502" type="qcurve" />
      <point x="343" y="534" />
      <point x="302" y="562" />
      <point x="274" y="562" type="qcurve" />
      <point x="240" y="562" />
      <point x="172" y="524" />
      <point x="128" y="486" type="qcurve" />
      <point x="22" y="610" type="line" />
      <point x="54" y="639" />
      <point x="127" y="691" />
      <point x="225" y="724" />
      <point x="296" y="724" type="qcurve" />
      <point x="369" y="724" />
      <point x="475" y="673" />
      <point x="534" y="585" />
      <point x="534" y="529" type="qcurve" />
      <point x="534" y="467" />
      <point x="489" y="370" />
      <point x="398" y="273" />
      <point x="330" y="211" type="qcurve" />
      <point x="278" y="164" type="line" />
      <point x="278" y="159" type="line" />
      <point x="548" y="159" type="line" />
    </contour>
  </outline>
</glyph>
<glyph name="three" format="2">
  <unicode hex="0033" />
  <advance width="586" />
  <outline>
    <contour>
      <point x="524" y="559" type="qcurve" />
      <point x="524" y="508" />
      <point x="480" y="435" />
      <point x="409" y="388" />
      <point x="366" y="376" type="qcurve" />
      <point x="366" y="373" type="line" />
      <point x="452" y="363" />
      <point x="545" y="280" />
      <point x="545" y="204" type="qcurve" />
      <point x="545" y="146" />
      <point x="482" y="48" />
      <point x="351" y="-10" />
      <point x="247" y="-10" type="qcurve" />
      <point x="178" y="-10" />
      <point x="80" y="11" />
      <point x="34" y="29" type="qcurve" />
      <point x="34" y="189" type="line" />
      <point x="81" y="165" />
      <point x="179" y="142" />
      <point x="219" y="142" type="qcurve" />
      <point x="290" y="142" />
      <point x="341" y="182" />
      <point x="341" y="216" type="qcurve" />
      <point x="341" y="240" />
      <point x="316" y="275" />
      <point x="251" y="293" />
      <point x="189" y="293" type="qcurve" />
      <point x="145" y="293" type="line" />
      <point x="145" y="438" type="line" />
      <point x="190" y="438" type="line" />
      <point x="245" y="438" />
      <point x="309" y="457" />
      <point x="337" y="491" />
      <point x="337" y="513" type="qcurve" />
      <point x="337" y="542" />
      <point x="293" y="569" />
      <point x="257" y="569" type="qcurve" />
      <point x="225" y="569" />
      <point x="168" y="551" />
      <point x="126" y="530" />
      <point x="115" y="523" type="qcurve" />
      <point x="35" y="652" type="line" />
      <point x="79" y="682" />
      <point x="194" y="724" />
      <point x="287" y="724" type="qcurve" />
      <point x="397" y="724" />
      <point x="524" y="636" />
    </contour>
  </outline>
</glyph>
<glyph name="four" format="2">
  <unicode hex="0034" />
  <advance width="586" />
  <outline>
    <contour>
      <point x="571" y="138" type="line" />
      <point x="492" y="138" type="line" />
      <point x="492" y="0" type="line" />
      <point x="302" y="0" type="line" />
      <point x="302" y="138" type="line" />
      <point x="17" y="138" type="line" />
      <point x="17" y="280" type="line" />
      <point x="314" y="714" type="line" />
      <point x="492" y="714" type="line" />
      <point x="492" y="282" type="line" />
      <point x="571" y="282" type="line" />
    </contour>
    <contour>
      <point x="302" y="365" type="line" />
      <point x="302" y="376" />
      <point x="303" y="411" />
      <point x="304" y="445" />
      <point x="306" y="469" />
      <point x="306" y="470" type="qcurve" />
      <point x="301" y="470" type="line" />
      <point x="291" y="448" />
      <point x="276" y="420" />
      <point x="263" y="400" type="qcurve" />
      <point x="184" y="282" type="line" />
      <point x="302" y="282" type="line" />
    </contour>
  </outline>
</glyph>
<glyph name="five" format="2">
  <unicode hex="0035" />
  <advance width="586" />
  <outline>
    <contour>
      <point x="324" y="468" type="qcurve" />
      <point x="384" y="468" />
      <point x="482" y="414" />
      <point x="540" y="312" />
      <point x="540" y="238" type="qcurve" />
      <point x="540" y="158" />
      <point x="476" y="47" />
      <point x="348" y="-10" />
      <point x="250" y="-10" type="qcurve" />
      <point x="188" y="-10" />
      <point x="86" y="10" />
      <point x="46" y="29" type="qcurve" />
      <point x="46" y="187" type="line" />
      <point x="84" y="170" />
      <point x="190" y="142" />
      <point x="234" y="142" type="qcurve" />
      <point x="270" y="142" />
      <point x="319" y="162" />
      <point x="345" y="203" />
      <point x="345" y="232" type="qcurve" />
      <point x="345" y="273" />
      <point x="286" y="319" />
      <point x="227" y="319" type="qcurve" />
      <point x="200" y="319" />
      <point x="149" y="308" />
      <point x="129" y="302" type="qcurve" />
      <point x="58" y="337" type="line" />
      <point x="85" y="714" type="line" />
      <point x="492" y="714" type="line" />
      <point x="492" y="553" type="line" />
      <point x="249" y="553" type="line" />
      <point x="240" y="459" type="line" />
      <point x="256" y="462" />
      <point x="289" y="468" />
    </contour>
  </outline>
</glyph>
<glyph name="six" format="2">
  <unicode hex="0036" />
  <advance width="586" />
  <outline>
    <contour>
      <point x="34" y="302" type="qcurve" />
      <point x="34" y="363" />
      <point x="52" y="485" />
      <point x="98" y="593" />
      <point x="182" y="676" />
      <point x="313" y="724" />
      <point x="408" y="724" type="qcurve" />
      <point x="429" y="724" />
      <point x="490" y="719" />
      <point x="510" y="716" type="qcurve" />
      <point x="510" y="565" type="line" />
      <point x="490" y="569" />
      <point x="440" y="574" />
      <point x="404" y="574" type="qcurve" />
      <point x="350" y="574" />
      <point x="276" y="549" />
      <point x="232" y="502" />
      <point x="210" y="435" />
      <point x="208" y="393" type="qcurve" />
      <point x="214" y="393" type="line" />
      <point x="227" y="417" />
      <point x="263" y="454" />
      <point x="317" y="476" />
      <point x="355" y="476" type="qcurve" />
      <point x="418" y="476" />
      <point x="507" y="422" />
      <point x="555" y="318" />
      <point x="555" y="244" type="qcurve" />
      <point x="555" y="164" />
      <point x="494" y="50" />
      <point x="381" y="-10" />
      <point x="303" y="-10" type="qcurve" />
      <point x="246" y="-10" />
      <point x="148" y="27" />
      <point x="75" y="104" />
      <point x="34" y="222" />
    </contour>
    <contour>
      <point x="299" y="143" type="qcurve" />
      <point x="330" y="143" />
      <point x="368" y="190" />
      <point x="368" y="240" type="qcurve" />
      <point x="368" y="281" />
      <point x="336" y="327" />
      <point x="301" y="327" type="qcurve" />
      <point x="277" y="327" />
      <point x="244" y="304" />
      <point x="226" y="269" />
      <point x="226" y="250" type="qcurve" />
      <point x="226" y="231" />
      <point x="235" y="193" />
      <point x="252" y="162" />
      <point x="280" y="143" />
    </contour>
  </outline>
</glyph>
<glyph name="eight" format="2">
  <unicode hex="0038" />
  <advance width="586" />
  <outline>
    <contour>
      <point x="295" y="724" type="qcurve" />
      <point x="366" y="724" />
      <point x="473" y="686" />
      <point x="533" y="609" />
      <point x="533" y="550" type="qcurve" />
      <point x="533" y="507" />
      <point x="501" y="442" />
      <point x="446" y="394" />
      <point x="410" y="376" type="qcurve" />
      <point x="444" y="357" />
      <point x="510" y="306" />
      <point x="554" y="237" />
      <point x="554" y="190" type="qcurve" />
      <point x="554" y="133" />
      <point x="498" y="42" />
      <point x="383" y="-10" />
      <point x="293" y="-10" type="qcurve" />
      <point x="203" y="-10" />
      <point x="88" y="40" />
      <point x="33" y="130" />
      <point x="33" y="188" type="qcurve" />
      <point x="33" y="238" />
      <point x="67" y="306" />
      <point x="126" y="354" />
      <point x="163" y="373" type="qcurve" />
      <point x="133" y="393" />
      <point x="84" y="444" />
      <point x="54" y="510" />
      <point x="54" y="551" type="qcurve" />
      <point x="54" y="609" />
      <point x="116" y="685" />
      <point x="225" y="724" />
    </contour>
    <contour>
      <point x="210" y="196" type="qcurve" />
      <point x="210" y="166" />
      <point x="253" y="129" />
      <point x="291" y="129" type="qcurve" />
      <point x="335" y="129" />
      <point x="377" y="163" />
      <point x="377" y="192" type="qcurve" />
      <point x="377" y="214" />
      <point x="351" y="250" />
      <point x="317" y="276" />
      <point x="304" y="283" type="qcurve" />
      <point x="291" y="291" type="line" />
      <point x="269" y="280" />
      <point x="232" y="252" />
      <point x="210" y="218" />
    </contour>
    <contour>
      <point x="294" y="585" type="qcurve" />
      <point x="270" y="585" />
      <point x="235" y="557" />
      <point x="235" y="533" type="qcurve" />
      <point x="235" y="518" />
      <point x="250" y="491" />
      <point x="276" y="468" />
      <point x="292" y="459" type="qcurve" />
      <point x="306" y="467" />
      <point x="334" y="487" />
      <point x="352" y="514" />
      <point x="352" y="533" type="qcurve" />
      <point x="352" y="557" />
      <point x="317" y="585" />
    </contour>
  </outline>
</glyph>
<glyph name="nine" format="2">
  <unicode hex="0039" />
  <advance width="586" />
  <outline>
    <contour>
      <point x="552" y="401" type="qcurve" />
      <point x="552" y="325" />
      <point x="525" y="196" />
      <point x="469" y="96" />
      <point x="381" y="26" />
      <point x="259" y="-10" />
      <point x="179" y="-10" type="qcurve" />
      <point x="157" y="-10" />
      <point x="99" y="-8" />
      <point x="79" y="-5" type="qcurve" />
      <point x="79" y="148" type="line" />
      <point x="100" y="144" />
      <point x="142" y="140" />
      <point x="170" y="140" type="qcurve" />
      <point x="230" y="140" />
      <point x="309" y="166" />
      <point x="355" y="214" />
      <point x="376" y="281" />
      <point x="378" y="321" type="qcurve" />
      <point x="372" y="321" type="line" />
      <point x="359" y="297" />
      <point x="323" y="260" />
      <point x="269" y="238" />
      <point x="228" y="238" type="qcurve" />
      <point x="168" y="238" />
      <point x="79" y="292" />
      <point x="31" y="397" />
      <point x="31" y="471" type="qcurve" />
      <point x="31" y="551" />
      <point x="92" y="664" />
      <point x="206" y="724" />
      <point x="284" y="724" type="qcurve" />
      <point x="340" y="724" />
      <point x="437" y="686" />
      <point x="511" y="608" />
      <point x="552" y="485" />
    </contour>
    <contour>
      <point x="289" y="570" type="qcurve" />
      <point x="255" y="570" />
      <point x="218" y="524" />
      <point x="218" y="473" type="qcurve" />
      <point x="218" y="433" />
      <point x="253" y="386" />
      <point x="287" y="386" type="qcurve" />
      <point x="309" y="386" />
      <point x="341" y="409" />
      <point x="360" y="445" />
      <point x="360" y="464" type="qcurve" />
      <point x="360" y="483" />
      <point x="352" y="521" />
      <point x="335" y="552" />
      <point x="308" y="570" />
    </contour>
  </outline>
</glyph>
<glyph name="colon" format="2">
  <unicode hex="003A" />
  <advance width="289" />
  <outline>
    <contour>
      <point x="42" y="81" type="qcurve" />
      <point x="42" y="132" />
      <point x="103" y="175" />
      <point x="146" y="175" type="qcurve" />
      <point x="187" y="175" />
      <point x="246" y="132" />
      <point x="246" y="81" type="qcurve" />
      <point x="246" y="31" />
      <point x="187" y="-12" />
      <point x="146" y="-12" type="qcurve" />
      <point x="103" y="-12" />
      <point x="42" y="31" />
    </contour>
    <contour>
      <point x="42" y="467" type="qcurve" />
      <point x="42" y="518" />
      <point x="103" y="560" />
      <point x="146" y="560" type="qcurve" />
      <point x="187" y="560" />
      <point x="246" y="518" />
      <point x="246" y="467" type="qcurve" />
      <point x="246" y="417" />
      <point x="187" y="373" />
      <point x="146" y="373" type="qcurve" />
      <point x="103" y="373" />
      <point x="42" y="417" />
    </contour>
  </outline>
</glyph>
<glyph name="semicolon" format="2">
  <unicode hex="003B" />
  <advance width="297" />
  <outline>
    <contour>
      <point x="250" y="135" type="line" />
      <point x="241" y="99" />
      <point x="213" y="-1" />
      <point x="181" y="-102" />
      <point x="164" y="-139" type="qcurve" />
      <point x="28" y="-139" type="line" />
      <point x="35" y="-105" />
      <point x="49" y="-30" />
      <point x="62" y="45" />
      <point x="73" y="116" />
      <point x="76" y="146" type="qcurve" />
      <point x="243" y="146" type="line" />
    </contour>
    <contour>
      <point x="45" y="467" type="qcurve" />
      <point x="45" y="518" />
      <point x="105" y="560" />
      <point x="148" y="560" type="qcurve" />
      <point x="189" y="560" />
      <point x="249" y="518" />
      <point x="249" y="467" type="qcurve" />
      <point x="249" y="417" />
      <point x="189" y="373" />
      <point x="148" y="373" type="qcurve" />
      <point x="105" y="373" />
      <point x="45" y="417" />
    </contour>
  </outline>
</glyph>
<glyph name="less" format="2">
  <unicode hex="003C" />
  <advance width="586" />
  <outline>
    <contour>
      <point x="539" y="87" type="line" />
      <point x="45" y="306" type="line" />
      <point x="45" y="390" type="line" />
      <point x="539" y="637" type="line" />
      <point x="539" y="492" type="line" />
      <point x="236" y="354" type="line" />
      <point x="539" y="231" type="line" />
    </contour>
  </outline>
</glyph>
<glyph name="equal" format="2">
  <unicode hex="003D" />
  <advance width="586" />
  <outline>
    <contour>
      <point x="45" y="398" type="line" />
      <point x="45" y="529" type="line" />
      <point x="541" y="529" type="line" />
      <point x="541" y="398" type="line" />
    </contour>
    <contour>
      <point x="45" y="175" type="line" />
      <point x="45" y="307" type="line" />
      <point x="541" y="307" type="line" />
      <point x="541" y="175" type="line" />
    </contour>
  </outline>
</glyph>
<glyph name="greater" format="2">
  <unicode hex="003E" />
  <advance width="586" />
  <outline>
    <contour>
      <point x="45" y="231" type="line" />
      <point x="348" y="354" type="line" />
      <point x="45" y="492" type="line" />
      <point x="45" y="637" type="line" />
      <point x="539" y="390" type="line" />
      <point x="539" y="306" type="line" />
      <point x="45" y="87" type="line" />
    </contour>
  </outline>
</glyph>
<glyph name="question" format="2">
  <unicode hex="003F" />
  <advance width="505" />
  <outline>
    <contour>
      <point x="144" y="294" type="line" />
      <point x="144" y="324" />
      <point x="159" y="373" />
      <point x="198" y="417" />
      <point x="233" y="439" type="qcurve" />
      <point x="266" y="460" />
      <point x="298" y="491" />
      <point x="307" y="517" />
      <point x="307" y="530" type="qcurve" />
      <point x="307" y="550" />
      <point x="270" y="574" />
      <point x="240" y="574" type="qcurve" />
      <point x="203" y="574" />
      <point x="117" y="548" />
      <point x="68" y="522" type="qcurve" />
      <point x="0" y="655" type="line" />
      <point x="55" y="687" />
      <point x="181" y="724" />
      <point x="254" y="724" type="qcurve" />
      <point x="365" y="724" />
      <point x="487" y="626" />
      <point x="487" y="546" type="qcurve" />
      <point x="487" y="508" />
      <point x="464" y="444" />
      <point x="413" y="389" />
      <point x="371" y="362" type="qcurve" />
      <point x="342" y="343" />
      <point x="308" y="317" />
      <point x="294" y="293" />
      <point x="294" y="277" type="qcurve" />
      <point x="294" y="252" type="line" />
      <point x="144" y="252" type="line" />
    </contour>
    <contour>
      <point x="123" y="81" type="qcurve" />
      <point x="123" y="133" />
      <point x="183" y="175" />
      <point x="226" y="175" type="qcurve" />
      <point x="267" y="175" />
      <point x="327" y="133" />
      <point x="327" y="81" type="qcurve" />
      <point x="327" y="32" />
      <point x="267" y="-12" />
      <point x="226" y="-12" type="qcurve" />
      <point x="183" y="-12" />
      <point x="123" y="32" />
    </contour>
  </outline>
</glyph>
<glyph name="at" format="2">
  <unicode hex="0040" />
  <advance width="897" />
  <outline>
    <contour>
      <point x="857" y="369" type="qcurve" />
      <point x="857" y="322" />
      <point x="833" y="231" />
      <point x="786" y="158" />
      <point x="717" y="114" />
      <point x="672" y="114" type="qcurve" />
      <point x="636" y="114" />
      <point x="572" y="144" />
      <point x="553" y="172" type="qcurve" />
      <point x="546" y="172" type="line" />
      <point x="524" y="147" />
      <point x="460" y="114" />
      <point x="419" y="114" type="qcurve" />
      <point x="326" y="114" />
      <point x="234" y="223" />
      <point x="234" y="312" type="qcurve" />
      <point x="234" y="378" />
      <point x="291" y="483" />
      <point x="403" y="544" />
      <point x="484" y="544" type="qcurve" />
      <point x="533" y="544" />
      <point x="627" y="525" />
      <point x="658" y="514" type="qcurve" />
      <point x="648" y="308" type="line" />
      <point x="648" y="303" />
      <point x="647" y="276" />
      <point x="647" y="262" type="qcurve" />
      <point x="647" y="239" />
      <point x="661" y="220" />
      <point x="671" y="220" type="qcurve" />
      <point x="689" y="220" />
      <point x="714" y="261" />
      <point x="728" y="330" />
      <point x="728" y="370" type="qcurve" />
      <point x="728" y="445" />
      <point x="672" y="554" />
      <point x="559" y="614" />
      <point x="475" y="614" type="qcurve" />
      <point x="401" y="614" />
      <point x="288" y="567" />
      <point x="212" y="482" />
      <point x="173" y="365" />
      <point x="173" y="296" type="qcurve" />
      <point x="173" y="217" />
      <point x="232" y="100" />
      <point x="351" y="36" />
      <point x="439" y="36" type="qcurve" />
      <point x="495" y="36" />
      <point x="630" y="61" />
      <point x="690" y="83" type="qcurve" />
      <point x="690" y="-29" type="line" />
      <point x="638" y="-51" />
      <point x="513" y="-75" />
      <point x="446" y="-75" type="qcurve" />
      <point x="318" y="-75" />
      <point x="136" y="15" />
      <point x="40" y="183" />
      <point x="40" y="298" type="qcurve" />
      <point x="40" y="388" />
      <point x="101" y="543" />
      <point x="214" y="658" />
      <point x="374" y="723" />
      <point x="473" y="723" type="qcurve" />
      <point x="560" y="723" />
      <point x="701" y="674" />
      <point x="802" y="582" />
      <point x="857" y="451" />
    </contour>
    <contour>
      <point x="371" y="313" type="qcurve" />
      <point x="371" y="264" />
      <point x="407" y="220" />
      <point x="436" y="220" type="qcurve" />
      <point x="476" y="220" />
      <point x="510" y="285" />
      <point x="514" y="358" type="qcurve" />
      <point x="519" y="434" type="line" />
      <point x="509" y="436" />
      <point x="495" y="437" />
      <point x="486" y="437" type="qcurve" />
      <point x="446" y="437" />
      <point x="395" y="403" />
      <point x="371" y="347" />
    </contour>
  </outline>
</glyph>
<glyph name="B" format="2">
  <unicode hex="0042" />
  <advance width="674" />
  <outline>
    <contour>
      <point x="326" y="714" type="line" />
      <point x="481" y="714" />
      <point x="613" y="622" />
      <point x="613" y="536" type="qcurve" />
      <point x="613" y="489" />
      <point x="579" y="424" />
      <point x="528" y="386" />
      <point x="501" y="379" type="qcurve" />
      <point x="501" y="374" type="line" />
      <point x="530" y="367" />
      <point x="588" y="333" />
      <point x="627" y="266" />
      <point x="627" y="209" type="qcurve" />
      <point x="627" y="144" />
      <point x="561" y="50" />
      <point x="439" y="0" />
      <point x="355" y="0" type="qcurve" />
      <point x="77" y="0" type="line" />
      <point x="77" y="714" type="line" />
    </contour>
    <contour>
      <point x="328" y="440" type="line" />
      <point x="376" y="440" />
      <point x="415" y="480" />
      <point x="415" y="508" type="qcurve" />
      <point x="415" y="537" />
      <point x="371" y="568" />
      <point x="324" y="568" type="qcurve" />
      <point x="270" y="568" type="line" />
      <point x="270" y="440" type="line" />
    </contour>
    <contour>
      <point x="270" y="299" type="line" />
      <point x="270" y="149" type="line" />
      <point x="338" y="149" type="line" />
      <point x="388" y="149" />
      <point x="428" y="192" />
      <point x="428" y="225" type="qcurve" />
      <point x="428" y="244" />
      <point x="411" y="278" />
      <point x="370" y="299" />
      <point x="334" y="299" type="qcurve" />
    </contour>
  </outline>
</glyph>
<glyph name="E" format="2">
  <unicode hex="0045" />
  <advance width="549" />
  <outline>
    <contour>
      <point x="501" y="0" type="line" />
      <point x="77" y="0" type="line" />
      <point x="77" y="714" type="line" />
      <point x="501" y="714" type="line" />
      <point x="501" y="559" type="line" />
      <point x="270" y="559" type="line" />
      <point x="270" y="447" type="line" />
      <point x="484" y="447" type="line" />
      <point x="484" y="292" type="line" />
      <point x="270" y="292" type="line" />
      <point x="270" y="157" type="line" />
      <point x="501" y="157" type="line" />
    </contour>
  </outline>
</glyph>
<glyph name="F" format="2">
  <unicode hex="0046" />
  <advance width="539" />
  <outline>
    <contour>
      <point x="267" y="0" type="line" />
      <point x="77" y="0" type="line" />
      <point x="77" y="714" type="line" />
      <point x="499" y="714" type="line" />
      <point x="499" y="559" type="line" />
      <point x="267" y="559" type="line" />
      <point x="267" y="423" type="line" />
      <point x="481" y="423" type="line" />
      <point x="481" y="268" type="line" />
      <point x="267" y="268" type="line" />
    </contour>
  </outline>
</glyph>
<glyph name="J" format="2">
  <unicode hex="004A" />
  <advance width="352" />
  <outline>
    <contour>
      <point x="21" y="-224" type="qcurve" />
      <point x="-12" y="-224" />
      <point x="-61" y="-218" />
      <point x="-79" y="-214" type="qcurve" />
      <point x="-79" y="-64" type="line" />
      <point x="-63" y="-67" />
      <point x="-28" y="-74" />
      <point x="-8" y="-74" type="qcurve" />
      <point x="27" y="-74" />
      <point x="65" y="-46" />
      <point x="81" y="11" />
      <point x="81" y="53" type="qcurve" />
      <point x="81" y="714" type="line" />
      <point x="275" y="714" type="line" />
      <point x="275" y="70" type="line" />
      <point x="275" y="-37" />
      <point x="210" y="-167" />
      <point x="96" y="-224" />
    </contour>
  </outline>
</glyph>
<glyph name="K" format="2">
  <unicode hex="004B" />
  <advance width="687" />
  <outline>
    <contour>
      <point x="687" y="0" type="line" />
      <point x="469" y="0" type="line" />
      <point x="328" y="273" type="line" />
      <point x="271" y="239" type="line" />
      <point x="271" y="0" type="line" />
      <point x="77" y="0" type="line" />
      <point x="77" y="714" type="line" />
      <point x="271" y="714" type="line" />
      <point x="271" y="404" type="line" />
      <point x="283" y="427" />
      <point x="315" y="474" />
      <point x="330" y="495" type="qcurve" />
      <point x="480" y="714" type="line" />
      <point x="691" y="714" type="line" />
      <point x="466" y="394" type="line" />
    </contour>
  </outline>
</glyph>
<glyph name="N" format="2">
  <unicode hex="004E" />
  <advance width="834" />
  <outline>
    <contour>
      <point x="757" y="0" type="line" />
      <point x="504" y="0" type="line" />
      <point x="243" y="503" type="line" />
      <point x="239" y="503" type="line" />
      <point x="241" y="480" />
      <point x="245" y="415" />
      <point x="248" y="349" />
      <point x="248" y="322" type="qcurve" />
      <point x="248" y="0" type="line" />
      <point x="77" y="0" type="line" />
      <point x="77" y="714" type="line" />
      <point x="329" y="714" type="line" />
      <point x="589" y="218" type="line" />
      <point x="592" y="218" type="line" />
      <point x="591" y="241" />
      <point x="587" y="303" />
      <point x="585" y="367" />
      <point x="585" y="391" type="qcurve" />
      <point x="585" y="714" type="line" />
      <point x="757" y="714" type="line" />
    </contour>
  </outline>
</glyph>
<glyph name="P" format="2">
  <unicode hex="0050" />
  <advance width="632" />
  <outline>
    <contour>
      <point x="324" y="714" type="line" />
      <point x="460" y="714" />
      <point x="595" y="596" />
      <point x="595" y="487" type="qcurve" />
      <point x="595" y="438" />
      <point x="567" y="349" />
      <point x="504" y="278" />
      <point x="400" y="237" />
      <point x="324" y="237" type="qcurve" />
      <point x="270" y="237" type="line" />
      <point x="270" y="0" type="line" />
      <point x="77" y="0" type="line" />
      <point x="77" y="714" type="line" />
    </contour>
    <contour>
      <point x="320" y="558" type="qcurve" />
      <point x="270" y="558" type="line" />
      <point x="270" y="394" type="line" />
      <point x="308" y="394" type="line" />
      <point x="333" y="394" />
      <point x="376" y="411" />
      <point x="402" y="450" />
      <point x="402" y="482" type="qcurve" />
      <point x="402" y="516" />
      <point x="362" y="558" />
    </contour>
  </outline>
</glyph>
<glyph name="R" format="2">
  <unicode hex="0052" />
  <advance width="677" />
  <outline>
    <contour>
      <point x="311" y="714" type="line" />
      <point x="408" y="714" />
      <point x="537" y="666" />
      <point x="602" y="573" />
      <point x="602" y="503" type="qcurve" />
      <point x="602" y="460" />
      <point x="573" y="388" />
      <point x="519" y="332" />
      <point x="481" y="311" type="qcurve" />
      <point x="689" y="0" type="line" />
      <point x="470" y="0" type="line" />
      <point x="319" y="260" type="line" />
      <point x="270" y="260" type="line" />
      <point x="270" y="0" type="line" />
      <point x="77" y="0" type="line" />
      <point x="77" y="714" type="line" />
    </contour>
    <contour>
      <point x="308" y="568" type="qcurve" />
      <point x="270" y="568" type="line" />
      <point x="270" y="405" type="line" />
      <point x="306" y="405" type="line" />
      <point x="350" y="405" />
      <point x="407" y="444" />
      <point x="407" y="494" type="qcurve" />
      <point x="407" y="517" />
      <point x="387" y="550" />
      <point x="343" y="568" />
    </contour>
  </outline>
</glyph>
<glyph name="S" format="2">
  <unicode hex="0053" />
  <advance width="577" />
  <outline>
    <contour>
      <point x="544" y="217" type="qcurve" />
      <point x="544" y="159" />
      <point x="485" y="55" />
      <point x="362" y="-10" />
      <point x="264" y="-10" type="qcurve" />
      <point x="215" y="-10" />
      <point x="142" y="-1" />
      <point x="78" y="19" />
      <point x="44" y="35" type="qcurve" />
      <point x="44" y="207" type="line" />
      <point x="102" y="178" />
      <point x="220" y="147" />
      <point x="268" y="147" type="qcurve" />
      <point x="297" y="147" />
      <point x="333" y="161" />
      <point x="351" y="185" />
      <point x="351" y="200" type="qcurve" />
      <point x="351" y="219" />
      <point x="325" y="245" />
      <point x="269" y="273" />
      <point x="222" y="294" type="qcurve" />
      <point x="182" y="312" />
      <point x="118" y="352" />
      <point x="73" y="402" />
      <point x="49" y="469" />
      <point x="49" y="515" type="qcurve" />
      <point x="49" y="584" />
      <point x="117" y="677" />
      <point x="238" y="724" />
      <point x="318" y="724" type="qcurve" />
      <point x="388" y="724" />
      <point x="500" y="693" />
      <point x="544" y="673" type="qcurve" />
      <point x="485" y="524" type="line" />
      <point x="439" y="545" />
      <point x="350" y="570" />
      <point x="312" y="570" type="qcurve" />
      <point x="287" y="570" />
      <point x="255" y="558" />
      <point x="240" y="537" />
      <point x="240" y="524" type="qcurve" />
      <point x="240" y="507" />
      <point x="266" y="481" />
      <point x="327" y="450" />
      <point x="380" y="426" type="qcurve" />
      <point x="432" y="403" />
      <point x="505" y="348" />
      <point x="544" y="273" />
    </contour>
  </outline>
</glyph>
<glyph name="T" format="2">
  <unicode hex="0054" />
  <advance width="591" />
  <outline>
    <contour>
      <point x="392" y="0" type="line" />
      <point x="199" y="0" type="line" />
      <point x="199" y="556" type="line" />
      <point x="25" y="556" type="line" />
      <point x="25" y="714" type="line" />
      <point x="566" y="714" type="line" />
      <point x="566" y="556" type="line" />
      <point x="392" y="556" type="line" />
    </contour>
  </outline>
</glyph>
<glyph name="U" format="2">
  <unicode hex="0055" />
  <advance width="757" />
  <outline>
    <contour>
      <point x="684" y="284" type="line" />
      <point x="684" y="194" />
      <point x="616" y="62" />
      <point x="479" y="-10" />
      <point x="376" y="-10" type="qcurve" />
      <point x="228" y="-10" />
      <point x="73" y="141" />
      <point x="73" y="280" type="qcurve" />
      <point x="73" y="714" type="line" />
      <point x="267" y="714" type="line" />
      <point x="267" y="295" type="line" />
      <point x="267" y="219" />
      <point x="324" y="151" />
      <point x="379" y="151" type="qcurve" />
      <point x="419" y="151" />
      <point x="468" y="181" />
      <point x="491" y="245" />
      <point x="491" y="296" type="qcurve" />
      <point x="491" y="714" type="line" />
      <point x="684" y="714" type="line" />
    </contour>
  </outline>
</glyph>
<glyph name="V" format="2">
  <unicode hex="0056" />
  <advance width="694" />
  <outline>
    <contour>
      <point x="694" y="714" type="line" />
      <point x="460" y="0" type="line" />
      <point x="233" y="0" type="line" />
      <point x="0" y="714" type="line" />
      <point x="217" y="714" type="line" />
      <point x="314" y="352" type="line" />
      <point x="319" y="332" />
      <point x="333" y="268" />
      <point x="346" y="204" />
      <point x="347" y="184" type="qcurve" />
      <point x="349" y="204" />
      <point x="360" y="267" />
      <point x="373" y="330" />
      <point x="379" y="350" type="qcurve" />
      <point x="478" y="714" type="line" />
    </contour>
  </outline>
</glyph>
<glyph name="W" format="2">
  <unicode hex="0057" />
  <advance width="1039" />
  <outline>
    <contour>
      <point x="1024" y="714" type="line" />
      <point x="848" y="0" type="line" />
      <point x="620" y="0" type="line" />
      <point x="552" y="311" type="line" />
      <point x="550" y="320" />
      <point x="542" y="362" />
      <point x="531" y="416" />
      <point x="523" y="468" />
      <point x="521" y="486" type="qcurve" />
      <point x="519" y="468" />
      <point x="510" y="416" />
      <point x="500" y="362" />
      <point x="491" y="320" />
      <point x="489" y="311" type="qcurve" />
      <point x="420" y="0" type="line" />
      <point x="192" y="0" type="line" />
      <point x="15" y="714" type="line" />
      <point x="201" y="714" type="line" />
      <point x="279" y="356" type="line" />
      <point x="282" y="343" />
      <point x="292" y="294" />
      <point x="303" y="238" />
      <point x="313" y="185" />
      <point x="315" y="167" type="qcurve" />
      <point x="319" y="197" />
      <point x="332" y="275" />
      <point x="348" y="354" />
      <point x="363" y="422" />
      <point x="368" y="444" type="qcurve" />
      <point x="431" y="714" type="line" />
      <point x="610" y="714" type="line" />
      <point x="671" y="444" type="line" />
      <point x="676" y="423" />
      <point x="691" y="354" />
      <point x="707" y="274" />
      <point x="721" y="196" />
      <point x="724" y="167" type="qcurve" />
      <point x="727" y="192" />
      <point x="741" y="266" />
      <point x="755" y="337" />
      <point x="759" y="355" type="qcurve" />
      <point x="838" y="714" type="line" />
    </contour>
  </outline>
</glyph>
<glyph name="X" format="2">
  <unicode hex="0058" />
  <advance width="723" />
  <outline>
    <contour>
      <point x="720" y="0" type="line" />
      <point x="497" y="0" type="line" />
      <point x="358" y="223" type="line" />
      <point x="220" y="0" type="line" />
      <point x="2" y="0" type="line" />
      <point x="239" y="365" type="line" />
      <point x="16" y="714" type="line" />
      <point x="230" y="714" type="line" />
      <point x="359" y="493" type="line" />
      <point x="483" y="714" type="line" />
      <point x="703" y="714" type="line" />
      <point x="477" y="350" type="line" />
    </contour>
  </outline>
</glyph>
<glyph name="Z" format="2">
  <unicode hex="005A" />
  <advance width="611" />
  <outline>
    <contour>
      <point x="586" y="0" type="line" />
      <point x="30" y="0" type="line" />
      <point x="30" y="119" type="line" />
      <point x="339" y="558" type="line" />
      <point x="37" y="558" type="line" />
      <point x="37" y="714" type="line" />
      <point x="578" y="714" type="line" />
      <point x="578" y="595" type="line" />
      <point x="269" y="156" type="line" />
      <point x="586" y="156" type="line" />
    </contour>
  </outline>
</glyph>
<glyph name="backslash" format="2">
  <unicode hex="005C" />
  <advance width="442" />
  <outline>
    <contour>
      <point x="172" y="724" type="line" />
      <point x="438" y="-10" type="line" />
      <point x="269" y="-10" type="line" />
      <point x="3" y="724" type="line" />
    </contour>
  </outline>
</glyph>
<glyph name="bracketright" format="2">
  <unicode hex="005D" />
  <advance width="324" />
  <outline>
    <contour>
      <point x="23" y="-44" type="line" />
      <point x="112" y="-44" type="line" />
      <point x="112" y="610" type="line" />
      <point x="23" y="610" type="line" />
      <point x="23" y="734" type="line" />
      <point x="267" y="734" type="line" />
      <point x="267" y="-168" type="line" />
      <point x="23" y="-168" type="line" />
    </contour>
  </outline>
</glyph>
<glyph name="asciicircum" format="2">
  <unicode hex="005E" />
  <advance width="525" />
  <outline>
    <contour>
      <point x="-8" y="245" type="line" />
      <point x="207" y="717" type="line" />
      <point x="290" y="717" type="line" />
      <point x="538" y="245" type="line" />
      <point x="394" y="245" type="line" />
      <point x="253" y="527" type="line" />
      <point x="132" y="245" type="line" />
    </contour>
  </outline>
</glyph>
<glyph name="underscore" format="2">
  <unicode hex="005F" />
  <advance width="500" />
  <outline>
    <contour>
      <point x="502" y="-185" type="line" />
      <point x="-2" y="-185" type="line" />
      <point x="-2" y="-65" type="line" />
      <point x="502" y="-65" type="line" />
    </contour>
  </outline>
</glyph>
<glyph name="grave" format="2">
  <unicode hex="0060" />
  <advance width="418" />
  <outline>
    <contour>
      <point x="250" y="766" type="line" />
      <point x="267" y="744" />
      <point x="314" y="690" />
      <point x="362" y="639" />
      <point x="378" y="620" type="qcurve" />
      <point x="378" y="606" type="line" />
      <point x="251" y="606" type="line" />
      <point x="231" y="619" />
      <point x="174" y="658" />
      <point x="113" y="701" />
      <point x="58" y="742" />
      <point x="40" y="756" type="qcurve" />
      <point x="40" y="766" type="line" />
    </contour>
  </outline>
</glyph>
<glyph name="a" format="2">
  <unicode hex="0061" />
  <advance width="623" />
  <outline>
    <contour>
      <point x="336" y="563" type="qcurve" />
      <point x="441" y="563" />
      <point x="559" y="459" />
      <point x="559" y="363" type="qcurve" />
      <point x="559" y="0" type="line" />
      <point x="427" y="0" type="line" />
      <point x="390" y="73" type="line" />
      <point x="386" y="73" type="line" />
      <point x="363" y="44" />
      <point x="314" y="7" />
      <point x="250" y="-10" />
      <point x="204" y="-10" type="qcurve" />
      <point x="156" y="-10" />
      <point x="80" y="29" />
      <point x="36" y="108" />
      <point x="36" y="169" type="qcurve" />
      <point x="36" y="258" />
      <point x="159" y="344" />
      <point x="276" y="349" type="qcurve" />
      <point x="368" y="352" type="line" />
      <point x="368" y="360" type="line" />
      <point x="368" y="397" />
      <point x="332" y="428" />
      <point x="301" y="428" type="qcurve" />
      <point x="268" y="428" />
      <point x="188" y="405" />
      <point x="147" y="387" type="qcurve" />
      <point x="92" y="513" type="line" />
      <point x="140" y="538" />
      <point x="261" y="563" />
    </contour>
    <contour>
      <point x="325" y="245" type="line" />
      <point x="273" y="243" />
      <point x="230" y="210" />
      <point x="230" y="180" type="qcurve" />
      <point x="230" y="152" />
      <point x="260" y="125" />
      <point x="285" y="125" type="qcurve" />
      <point x="320" y="125" />
      <point x="369" y="169" />
      <point x="369" y="204" type="qcurve" />
      <point x="369" y="247" type="line" />
    </contour>
  </outline>
</glyph>
<glyph name="b" format="2">
  <unicode hex="0062" />
  <advance width="643" />
  <outline>
    <contour>
      <point x="257" y="588" type="line" />
      <point x="257" y="559" />
      <point x="253" y="505" />
      <point x="250" y="482" type="qcurve" />
      <point x="257" y="482" type="line" />
      <point x="278" y="516" />
      <point x="348" y="563" />
      <point x="404" y="563" type="qcurve" />
      <point x="490" y="563" />
      <point x="600" y="417" />
      <point x="600" y="278" type="qcurve" />
      <point x="600" y="184" />
      <point x="549" y="55" />
      <point x="458" y="-10" />
      <point x="398" y="-10" type="qcurve" />
      <point x="340" y="-10" />
      <point x="278" y="31" />
      <point x="257" y="54" type="qcurve" />
      <point x="245" y="54" type="line" />
      <point x="215" y="0" type="line" />
      <point x="66" y="0" type="line" />
      <point x="66" y="760" type="line" />
      <point x="257" y="760" type="line" />
    </contour>
    <contour>
      <point x="334" y="413" type="qcurve" />
      <point x="308" y="413" />
      <point x="273" y="388" />
      <point x="257" y="338" />
      <point x="257" y="298" type="qcurve" />
      <point x="257" y="271" type="line" />
      <point x="257" y="207" />
      <point x="292" y="144" />
      <point x="336" y="144" type="qcurve" />
      <point x="370" y="144" />
      <point x="406" y="213" />
      <point x="406" y="280" type="qcurve" />
      <point x="406" y="346" />
      <point x="371" y="413" />
    </contour>
  </outline>
</glyph>
<glyph name="c" format="2">
  <unicode hex="0063" />
  <advance width="539" />
  <outline>
    <contour>
      <point x="318" y="-10" type="qcurve" />
      <point x="234" y="-10" />
      <point x="110" y="50" />
      <point x="42" y="176" />
      <point x="42" y="274" type="qcurve" />
      <point x="42" y="375" />
      <point x="118" y="502" />
      <point x="249" y="563" />
      <point x="333" y="563" type="qcurve" />
      <point x="384" y="563" />
      <point x="475" y="541" />
      <point x="514" y="521" type="qcurve" />
      <point x="458" y="380" type="line" />
      <point x="424" y="395" />
      <point x="365" y="413" />
      <point x="333" y="413" type="qcurve" />
      <point x="304" y="413" />
      <point x="260" y="383" />
      <point x="236" y="322" />
      <point x="236" y="275" type="qcurve" />
      <point x="236" y="227" />
      <point x="261" y="169" />
      <point x="305" y="142" />
      <point x="334" y="142" type="qcurve" />
      <point x="375" y="142" />
      <point x="458" y="168" />
      <point x="495" y="191" type="qcurve" />
      <point x="495" y="39" type="line" />
      <point x="461" y="17" />
      <point x="375" y="-10" />
    </contour>
  </outline>
</glyph>
<glyph name="e" format="2">
  <unicode hex="0065" />
  <advance width="618" />
  <outline>
    <contour>
      <point x="315" y="563" type="qcurve" />
      <point x="396" y="563" />
      <point x="513" y="507" />
      <point x="576" y="395" />
      <point x="576" y="310" type="qcurve" />
      <point x="576" y="225" type="line" />
      <point x="235" y="225" type="line" />
      <point x="237" y="182" />
      <point x="298" y="126" />
      <point x="356" y="126" type="qcurve" />
      <point x="408" y="126" />
      <point x="494" y="146" />
      <point x="540" y="168" type="qcurve" />
      <point x="540" y="31" type="line" />
      <point x="500" y="10" />
      <point x="405" y="-10" />
      <point x="333" y="-10" type="qcurve" />
      <point x="249" y="-10" />
      <point x="118" y="49" />
      <point x="42" y="175" />
      <point x="42" y="273" type="qcurve" />
      <point x="42" y="373" />
      <point x="111" y="501" />
      <point x="234" y="563" />
    </contour>
    <contour>
      <point x="322" y="433" type="qcurve" />
      <point x="288" y="433" />
      <point x="243" y="391" />
      <point x="239" y="345" type="qcurve" />
      <point x="403" y="345" type="line" />
      <point x="403" y="370" />
      <point x="384" y="409" />
      <point x="348" y="433" />
    </contour>
  </outline>
</glyph>
<glyph name="f" format="2">
  <unicode hex="0066" />
  <advance width="413" />
  <outline>
    <contour>
      <point x="404" y="410" type="line" />
      <point x="286" y="410" type="line" />
      <point x="286" y="0" type="line" />
      <point x="95" y="0" type="line" />
      <point x="95" y="410" type="line" />
      <point x="22" y="410" type="line" />
      <point x="22" y="504" type="line" />
      <point x="99" y="551" type="line" />
      <point x="99" y="560" type="line" />
      <point x="99" y="632" />
      <point x="137" y="722" />
      <point x="220" y="765" />
      <point x="287" y="765" type="qcurve" />
      <point x="330" y="765" />
      <point x="400" y="752" />
      <point x="438" y="739" type="qcurve" />
      <point x="397" y="615" type="line" />
      <point x="383" y="619" />
      <point x="348" y="625" />
      <point x="328" y="625" type="qcurve" />
      <point x="306" y="625" />
      <point x="286" y="598" />
      <point x="286" y="568" type="qcurve" />
      <point x="286" y="553" type="line" />
      <point x="404" y="553" type="line" />
    </contour>
  </outline>
</glyph>
<glyph name="h" format="2">
  <unicode hex="0068" />
  <advance width="670" />
  <outline>
    <contour>
      <point x="257" y="652" type="line" />
      <point x="257" y="591" />
      <point x="251" y="507" />
      <point x="249" y="485" type="qcurve" />
      <point x="258" y="485" type="line" />
      <point x="276" y="514" />
      <point x="321" y="548" />
      <point x="377" y="563" />
      <point x="410" y="563" type="qcurve" />
      <point x="465" y="563" />
      <point x="553" y="521" />
      <point x="606" y="432" />
      <point x="606" y="360" type="qcurve" />
      <point x="606" y="0" type="line" />
      <point x="414" y="0" type="line" />
      <point x="414" y="302" type="line" />
      <point x="414" y="357" />
      <point x="382" y="413" />
      <point x="348" y="413" type="qcurve" />
      <point x="314" y="413" />
      <point x="274" y="373" />
      <point x="257" y="298" />
      <point x="257" y="243" type="qcurve" />
      <point x="257" y="0" type="line" />
      <point x="66" y="0" type="line" />
      <point x="66" y="760" type="line" />
      <point x="257" y="760" type="line" />
    </contour>
  </outline>
</glyph>
<glyph name="j" format="2">
  <unicode hex="006A" />
  <advance width="324" />
  <outline>
    <contour>
      <point x="52" y="-240" type="qcurve" />
      <point x="29" y="-240" />
      <point x="-31" y="-233" />
      <point x="-51" y="-228" type="qcurve" />
      <point x="-51" y="-79" type="line" />
      <point x="-35" y="-83" />
      <point x="-8" y="-88" />
      <point x="8" y="-88" type="qcurve" />
      <point x="31" y="-88" />
      <point x="66" y="-55" />
      <point x="66" y="-5" type="qcurve" />
      <point x="66" y="553" type="line" />
      <point x="257" y="553" type="line" />
      <point x="257" y="-45" type="line" />
      <point x="257" y="-95" />
      <point x="218" y="-184" />
      <point x="128" y="-240" />
    </contour>
    <contour>
      <point x="61" y="691" type="qcurve" />
      <point x="61" y="742" />
      <point x="120" y="776" />
      <point x="162" y="776" type="qcurve" />
      <point x="203" y="776" />
      <point x="264" y="742" />
      <point x="264" y="691" type="qcurve" />
      <point x="264" y="642" />
      <point x="203" y="607" />
      <point x="162" y="607" type="qcurve" />
      <point x="120" y="607" />
      <point x="61" y="642" />
    </contour>
  </outline>
</glyph>
<glyph name="l" format="2">
  <unicode hex="006C" />
  <advance width="323" />
  <outline>
    <contour>
      <point x="257" y="0" type="line" />
      <point x="66" y="0" type="line" />
      <point x="66" y="760" type="line" />
      <point x="257" y="760" type="line" />
    </contour>
  </outline>
</glyph>
<glyph name="m" format="2">
  <unicode hex="006D" />
  <advance width="1000" />
  <outline>
    <contour>
      <point x="741" y="563" type="qcurve" />
      <point x="836" y="563" />
      <point x="936" y="467" />
      <point x="936" y="360" type="qcurve" />
      <point x="936" y="0" type="line" />
      <point x="745" y="0" type="line" />
      <point x="745" y="301" type="line" />
      <point x="745" y="364" />
      <point x="711" y="413" />
      <point x="678" y="413" type="qcurve" />
      <point x="632" y="413" />
      <point x="596" y="332" />
      <point x="596" y="258" type="qcurve" />
      <point x="596" y="0" type="line" />
      <point x="405" y="0" type="line" />
      <point x="405" y="301" type="line" />
      <point x="405" y="341" />
      <point x="391" y="390" />
      <point x="363" y="413" />
      <point x="341" y="413" type="qcurve" />
      <point x="308" y="413" />
      <point x="271" y="373" />
      <point x="257" y="297" />
      <point x="257" y="242" type="qcurve" />
      <point x="257" y="0" type="line" />
      <point x="66" y="0" type="line" />
      <point x="66" y="553" type="line" />
      <point x="210" y="553" type="line" />
      <point x="238" y="485" type="line" />
      <point x="243" y="485" type="line" />
      <point x="258" y="508" />
      <point x="304" y="543" />
      <point x="368" y="563" />
      <point x="409" y="563" type="qcurve" />
      <point x="470" y="563" />
      <point x="549" y="522" />
      <point x="574" y="486" type="qcurve" />
      <point x="580" y="486" type="line" />
      <point x="606" y="523" />
      <point x="689" y="563" />
    </contour>
  </outline>
</glyph>
<glyph name="n" format="2">
  <unicode hex="006E" />
  <advance width="670" />
  <outline>
    <contour>
      <point x="412" y="563" type="qcurve" />
      <point x="498" y="563" />
      <point x="606" y="467" />
      <point x="606" y="359" type="qcurve" />
      <point x="606" y="0" type="line" />
      <point x="415" y="0" type="line" />
      <point x="415" y="302" type="line" />
      <point x="415" y="357" />
      <point x="382" y="413" />
      <point x="348" y="413" type="qcurve" />
      <point x="294" y="413" />
      <point x="257" y="324" />
      <point x="257" y="242" type="qcurve" />
      <point x="257" y="0" type="line" />
      <point x="66" y="0" type="line" />
      <point x="66" y="553" type="line" />
      <point x="209" y="553" type="line" />
      <point x="236" y="480" type="line" />
      <point x="243" y="480" type="line" />
      <point x="261" y="506" />
      <point x="310" y="543" />
      <point x="373" y="563" />
    </contour>
  </outline>
</glyph>
<glyph name="o" format="2">
  <unicode hex="006F" />
  <advance width="637" />
  <outline>
    <contour>
      <point x="594" y="278" type="qcurve" />
      <point x="594" y="209" />
      <point x="556" y="101" />
      <point x="484" y="28" />
      <point x="382" y="-10" />
      <point x="317" y="-10" type="qcurve" />
      <point x="257" y="-10" />
      <point x="156" y="28" />
      <point x="83" y="101" />
      <point x="42" y="209" />
      <point x="42" y="278" type="qcurve" />
      <point x="42" y="370" />
      <point x="109" y="497" />
      <point x="233" y="563" />
      <point x="320" y="563" type="qcurve" />
      <point x="400" y="563" />
      <point x="523" y="497" />
      <point x="594" y="370" />
    </contour>
    <contour>
      <point x="236" y="278" type="qcurve" />
      <point x="236" y="231" />
      <point x="252" y="165" />
      <point x="289" y="132" />
      <point x="319" y="132" type="qcurve" />
      <point x="349" y="132" />
      <point x="384" y="165" />
      <point x="400" y="231" />
      <point x="400" y="278" type="qcurve" />
      <point x="400" y="325" />
      <point x="384" y="389" />
      <point x="348" y="421" />
      <point x="318" y="421" type="qcurve" />
      <point x="275" y="421" />
      <point x="236" y="349" />
    </contour>
  </outline>
</glyph>
<glyph name="t" format="2">
  <unicode hex="0074" />
  <advance width="460" />
  <outline>
    <contour>
      <point x="337" y="141" type="qcurve" />
      <point x="363" y="141" />
      <point x="406" y="152" />
      <point x="429" y="160" type="qcurve" />
      <point x="429" y="21" type="line" />
      <point x="398" y="8" />
      <point x="328" y="-10" />
      <point x="274" y="-10" type="qcurve" />
      <point x="220" y="-10" />
      <point x="139" y="24" />
      <point x="93" y="107" />
      <point x="93" y="182" type="qcurve" />
      <point x="93" y="410" type="line" />
      <point x="26" y="410" type="line" />
      <point x="26" y="488" type="line" />
      <point x="111" y="548" type="line" />
      <point x="160" y="664" type="line" />
      <point x="285" y="664" type="line" />
      <point x="285" y="553" type="line" />
      <point x="421" y="553" type="line" />
      <point x="421" y="410" type="line" />
      <point x="285" y="410" type="line" />
      <point x="285" y="195" type="line" />
      <point x="285" y="168" />
      <point x="312" y="141" />
    </contour>
  </outline>
</glyph>
<glyph name="w" format="2">
  <unicode hex="0077" />
  <advance width="910" />
  <outline>
    <contour>
      <point x="484" y="242" type="line" />
      <point x="480" y="261" />
      <point x="470" y="308" />
      <point x="463" y="356" />
      <point x="457" y="396" />
      <point x="455" y="407" type="qcurve" />
      <point x="452" y="407" type="line" />
      <point x="451" y="396" />
      <point x="444" y="356" />
      <point x="435" y="307" />
      <point x="425" y="256" />
      <point x="420" y="235" type="qcurve" />
      <point x="364" y="0" type="line" />
      <point x="163" y="0" type="line" />
      <point x="12" y="553" type="line" />
      <point x="200" y="553" type="line" />
      <point x="245" y="341" type="line" />
      <point x="250" y="318" />
      <point x="260" y="253" />
      <point x="269" y="186" />
      <point x="270" y="159" type="qcurve" />
      <point x="273" y="159" type="line" />
      <point x="274" y="179" />
      <point x="282" y="231" />
      <point x="291" y="283" />
      <point x="299" y="323" />
      <point x="300" y="330" type="qcurve" />
      <point x="351" y="553" type="line" />
      <point x="562" y="553" type="line" />
      <point x="609" y="327" type="line" />
      <point x="613" y="308" />
      <point x="624" y="249" />
      <point x="635" y="185" />
      <point x="637" y="159" type="qcurve" />
      <point x="640" y="159" type="line" />
      <point x="642" y="186" />
      <point x="650" y="255" />
      <point x="660" y="320" />
      <point x="665" y="341" type="qcurve" />
      <point x="714" y="553" type="line" />
      <point x="898" y="553" type="line" />
      <point x="746" y="0" type="line" />
      <point x="542" y="0" type="line" />
    </contour>
  </outline>
</glyph>
<glyph name="y" format="2">
  <unicode hex="0079" />
  <advance width="610" />
  <outline>
    <contour>
      <point x="-1" y="553" type="line" />
      <point x="200" y="553" type="line" />
      <point x="294" y="236" type="line" />
      <point x="296" y="229" />
      <point x="300" y="209" />
      <point x="303" y="187" />
      <point x="303" y="176" type="qcurve" />
      <point x="307" y="176" type="line" />
      <point x="309" y="196" />
      <point x="316" y="225" />
      <point x="319" y="235" type="qcurve" />
      <point x="415" y="553" type="line" />
      <point x="610" y="553" type="line" />
      <point x="391" y="-35" type="line" />
      <point x="366" y="-102" />
      <point x="299" y="-194" />
      <point x="201" y="-240" />
      <point x="128" y="-240" type="qcurve" />
      <point x="102" y="-240" />
      <point x="64" y="-235" />
      <point x="50" y="-232" type="qcurve" />
      <point x="50" y="-82" type="line" />
      <point x="61" y="-84" />
      <point x="92" y="-88" />
      <point x="109" y="-88" type="qcurve" />
      <point x="141" y="-88" />
      <point x="180" y="-62" />
      <point x="206" y="-21" />
      <point x="215" y="3" type="qcurve" />
      <point x="217" y="8" type="line" />
    </contour>
  </outline>
</glyph>
<glyph name="braceleft" format="2">
  <unicode hex="007B" />
  <advance width="433" />
  <outline>
    <contour>
      <point x="401" y="-168" type="line" />
      <point x="299" y="-168" />
      <point x="190" y="-133" />
      <point x="150" y="-58" />
      <point x="150" y="0" type="qcurve" />
      <point x="150" y="121" type="line" />
      <point x="150" y="151" />
      <point x="115" y="188" />
      <point x="60" y="204" />
      <point x="30" y="204" type="qcurve" />
      <point x="30" y="351" type="line" />
      <point x="61" y="351" />
      <point x="116" y="367" />
      <point x="150" y="404" />
      <point x="150" y="434" type="qcurve" />
      <point x="150" y="558" type="line" />
      <point x="150" y="615" />
      <point x="189" y="689" />
      <point x="297" y="724" />
      <point x="401" y="724" type="qcurve" />
      <point x="401" y="588" type="line" />
      <point x="381" y="588" />
      <point x="338" y="582" />
      <point x="308" y="561" />
      <point x="308" y="536" type="qcurve" />
      <point x="308" y="404" type="line" />
      <point x="308" y="343" />
      <point x="247" y="289" />
      <point x="191" y="281" type="qcurve" />
      <point x="191" y="275" type="line" />
      <point x="248" y="266" />
      <point x="308" y="212" />
      <point x="308" y="155" type="qcurve" />
      <point x="308" y="20" type="line" />
      <point x="308" y="-4" />
      <point x="338" y="-26" />
      <point x="382" y="-31" />
      <point x="401" y="-32" type="qcurve" />
    </contour>
  </outline>
</glyph>
<glyph name="bar" format="2">
  <unicode hex="007C" />
  <advance width="509" />
  <outline>
    <contour>
      <point x="189" y="760" type="line" />
      <point x="320" y="760" type="line" />
      <point x="320" y="-218" type="line" />
      <point x="189" y="-218" type="line" />
    </contour>
  </outline>
</glyph>
<glyph name="braceright" format="2">
  <unicode hex="007D" />
  <advance width="433" />
  <outline>
    <contour>
      <point x="32" y="-32" type="line" />
      <point x="52" y="-31" />
      <point x="95" y="-26" />
      <point x="125" y="-4" />
      <point x="125" y="20" type="qcurve" />
      <point x="125" y="155" type="line" />
      <point x="125" y="212" />
      <point x="185" y="266" />
      <point x="242" y="275" type="qcurve" />
      <point x="242" y="281" type="line" />
      <point x="187" y="289" />
      <point x="125" y="343" />
      <point x="125" y="404" type="qcurve" />
      <point x="125" y="536" type="line" />
      <point x="125" y="561" />
      <point x="95" y="582" />
      <point x="52" y="588" />
      <point x="32" y="588" type="qcurve" />
      <point x="32" y="724" type="line" />
      <point x="136" y="724" />
      <point x="244" y="689" />
      <point x="283" y="615" />
      <point x="283" y="558" type="qcurve" />
      <point x="283" y="434" type="line" />
      <point x="283" y="404" />
      <point x="317" y="367" />
      <point x="372" y="351" />
      <point x="403" y="351" type="qcurve" />
      <point x="403" y="204" type="line" />
      <point x="373" y="204" />
      <point x="318" y="188" />
      <point x="283" y="151" />
      <point x="283" y="121" type="qcurve" />
      <point x="283" y="0" type="line" />
      <point x="283" y="-58" />
      <point x="243" y="-133" />
      <point x="135" y="-168" />
      <point x="32" y="-168" type="qcurve" />
    </contour>
  </outline>
</glyph>
<glyph name="exclamdown" format="2">
  <unicode hex="00A1" />
  <advance width="290" />
  <outline>
    <contour>
      <point x="65" y="299" type="line" />
      <point x="226" y="299" type="line" />
      <point x="251" y="-163" type="line" />
      <point x="40" y="-163" type="line" />
    </contour>
    <contour>
      <point x="249" y="469" type="qcurve" />
      <point x="249" y="417" />
      <point x="188" y="376" />
      <point x="145" y="376" type="qcurve" />
      <point x="105" y="376" />
      <point x="45" y="417" />
      <point x="45" y="469" type="qcurve" />
      <point x="45" y="520" />
      <point x="105" y="563" />
      <point x="145" y="563" type="qcurve" />
      <point x="188" y="563" />
      <point x="249" y="520" />
    </contour>
  </outline>
</glyph>
<glyph name="cent" format="2">
  <unicode hex="00A2" />
  <advance width="586" />
  <outline>
    <contour>
      <point x="377" y="649" type="line" />
      <point x="421" y="647" />
      <point x="501" y="625" />
      <point x="535" y="608" type="qcurve" />
      <point x="479" y="467" type="line" />
      <point x="445" y="482" />
      <point x="386" y="500" />
      <point x="354" y="500" type="qcurve" />
      <point x="325" y="500" />
      <point x="281" y="470" />
      <point x="257" y="409" />
      <point x="257" y="362" type="qcurve" />
      <point x="257" y="314" />
      <point x="282" y="256" />
      <point x="326" y="229" />
      <point x="355" y="229" type="qcurve" />
      <point x="396" y="229" />
      <point x="479" y="255" />
      <point x="516" y="278" type="qcurve" />
      <point x="516" y="126" type="line" />
      <point x="488" y="107" />
      <point x="420" y="83" />
      <point x="377" y="78" type="qcurve" />
      <point x="377" y="-10" type="line" />
      <point x="276" y="-10" type="line" />
      <point x="276" y="81" type="line" />
      <point x="210" y="91" />
      <point x="115" y="158" />
      <point x="63" y="276" />
      <point x="63" y="361" type="qcurve" />
      <point x="63" y="445" />
      <point x="117" y="562" />
      <point x="213" y="631" />
      <point x="276" y="643" type="qcurve" />
      <point x="276" y="724" type="line" />
      <point x="377" y="724" type="line" />
    </contour>
  </outline>
</glyph>
<glyph name="sterling" format="2">
  <unicode hex="00A3" />
  <advance width="586" />
  <outline>
    <contour>
      <point x="353" y="725" type="qcurve" />
      <point x="406" y="725" />
      <point x="508" y="703" />
      <point x="551" y="685" type="qcurve" />
      <point x="497" y="544" type="line" />
      <point x="460" y="558" />
      <point x="397" y="571" />
      <point x="374" y="571" type="qcurve" />
      <point x="351" y="571" />
      <point x="319" y="544" />
      <point x="319" y="504" type="qcurve" />
      <point x="319" y="452" type="line" />
      <point x="487" y="452" type="line" />
      <point x="487" y="317" type="line" />
      <point x="319" y="317" type="line" />
      <point x="319" y="270" type="line" />
      <point x="319" y="238" />
      <point x="295" y="195" />
      <point x="259" y="168" />
      <point x="241" y="159" type="qcurve" />
      <point x="569" y="159" type="line" />
      <point x="569" y="0" type="line" />
      <point x="51" y="0" type="line" />
      <point x="51" y="153" type="line" />
      <point x="78" y="169" />
      <point x="113" y="196" />
      <point x="131" y="236" />
      <point x="131" y="269" type="qcurve" />
      <point x="131" y="317" type="line" />
      <point x="50" y="317" type="line" />
      <point x="50" y="452" type="line" />
      <point x="131" y="452" type="line" />
      <point x="131" y="510" type="line" />
      <point x="131" y="586" />
      <point x="187" y="680" />
      <point x="287" y="725" />
    </contour>
  </outline>
</glyph>
<glyph name="currency" format="2">
  <unicode hex="00A4" />
  <advance width="566" />
  <outline>
    <contour>
      <point x="88" y="353" type="qcurve" />
      <point x="88" y="376" />
      <point x="99" y="420" />
      <point x="108" y="439" type="qcurve" />
      <point x="47" y="497" type="line" />
      <point x="135" y="586" type="line" />
      <point x="195" y="526" type="line" />
      <point x="214" y="535" />
      <point x="260" y="546" />
      <point x="279" y="546" type="qcurve" />
      <point x="302" y="546" />
      <point x="344" y="535" />
      <point x="365" y="524" type="qcurve" />
      <point x="424" y="586" type="line" />
      <point x="514" y="501" type="line" />
      <point x="452" y="440" type="line" />
      <point x="462" y="422" />
      <point x="472" y="376" />
      <point x="472" y="353" type="qcurve" />
      <point x="472" y="329" />
      <point x="463" y="287" />
      <point x="452" y="267" type="qcurve" />
      <point x="511" y="209" type="line" />
      <point x="424" y="122" type="line" />
      <point x="365" y="180" type="line" />
      <point x="346" y="172" />
      <point x="302" y="161" />
      <point x="279" y="161" type="qcurve" />
      <point x="256" y="161" />
      <point x="213" y="169" />
      <point x="193" y="179" type="qcurve" />
      <point x="135" y="123" type="line" />
      <point x="48" y="210" type="line" />
      <point x="108" y="268" type="line" />
      <point x="98" y="288" />
      <point x="88" y="330" />
    </contour>
    <contour>
      <point x="213" y="353" type="qcurve" />
      <point x="213" y="335" />
      <point x="231" y="305" />
      <point x="261" y="287" />
      <point x="279" y="287" type="qcurve" />
      <point x="298" y="287" />
      <point x="329" y="305" />
      <point x="348" y="335" />
      <point x="348" y="353" type="qcurve" />
      <point x="348" y="372" />
      <point x="329" y="402" />
      <point x="298" y="420" />
      <point x="279" y="420" type="qcurve" />
      <point x="261" y="420" />
      <point x="231" y="402" />
      <point x="213" y="372" />
    </contour>
  </outline>
</glyph>
<glyph name="section" format="2">
  <unicode hex="00A7" />
  <advance width="500" />
  <outline>
    <contour>
      <point x="52" y="392" type="qcurve" />
      <point x="52" y="430" />
      <point x="103" y="488" />
      <point x="132" y="506" type="qcurve" />
      <point x="98" y="530" />
      <point x="63" y="589" />
      <point x="63" y="626" type="qcurve" />
      <point x="63" y="689" />
      <point x="166" y="770" />
      <point x="261" y="770" type="qcurve" />
      <point x="311" y="770" />
      <point x="405" y="746" />
      <point x="442" y="728" type="qcurve" />
      <point x="394" y="620" type="line" />
      <point x="362" y="637" />
      <point x="291" y="662" />
      <point x="260" y="662" type="qcurve" />
      <point x="235" y="662" />
      <point x="207" y="644" />
      <point x="207" y="626" type="qcurve" />
      <point x="207" y="615" />
      <point x="221" y="592" />
      <point x="258" y="567" />
      <point x="292" y="553" type="qcurve" />
      <point x="349" y="530" />
      <point x="420" y="480" />
      <point x="453" y="424" />
      <point x="453" y="392" type="qcurve" />
      <point x="453" y="342" />
      <point x="408" y="286" />
      <point x="381" y="266" type="qcurve" />
      <point x="408" y="246" />
      <point x="442" y="186" />
      <point x="442" y="147" type="qcurve" />
      <point x="442" y="80" />
      <point x="335" y="-12" />
      <point x="229" y="-12" type="qcurve" />
      <point x="179" y="-12" />
      <point x="93" y="9" />
      <point x="57" y="30" type="qcurve" />
      <point x="57" y="149" type="line" />
      <point x="86" y="134" />
      <point x="149" y="110" />
      <point x="208" y="96" />
      <point x="230" y="96" type="qcurve" />
      <point x="268" y="96" />
      <point x="298" y="122" />
      <point x="298" y="143" type="qcurve" />
      <point x="298" y="157" />
      <point x="286" y="178" />
      <point x="250" y="202" />
      <point x="215" y="217" type="qcurve" />
      <point x="167" y="239" />
      <point x="94" y="284" />
      <point x="52" y="346" />
    </contour>
    <contour>
      <point x="194" y="407" type="qcurve" />
      <point x="194" y="391" />
      <point x="211" y="364" />
      <point x="248" y="338" />
      <point x="278" y="322" type="qcurve" />
      <point x="291" y="315" type="line" />
      <point x="298" y="323" />
      <point x="311" y="348" />
      <point x="311" y="367" type="qcurve" />
      <point x="311" y="385" />
      <point x="295" y="414" />
      <point x="256" y="443" />
      <point x="222" y="457" type="qcurve" />
      <point x="212" y="451" />
      <point x="194" y="427" />
    </contour>
  </outline>
</glyph>
<glyph name="dieresis" format="2">
  <unicode hex="00A8" />
  <advance width="602" />
  <outline>
    <contour>
      <point x="109" y="690" type="qcurve" />
      <point x="109" y="730" />
      <point x="157" y="767" />
      <point x="192" y="767" type="qcurve" />
      <point x="226" y="767" />
      <point x="276" y="730" />
      <point x="276" y="690" type="qcurve" />
      <point x="276" y="651" />
      <point x="226" y="614" />
      <point x="192" y="614" type="qcurve" />
      <point x="157" y="614" />
      <point x="109" y="651" />
    </contour>
    <contour>
      <point x="343" y="690" type="qcurve" />
      <point x="343" y="730" />
      <point x="391" y="767" />
      <point x="427" y="767" type="qcurve" />
      <point x="461" y="767" />
      <point x="511" y="730" />
      <point x="511" y="690" type="qcurve" />
      <point x="511" y="651" />
      <point x="461" y="614" />
      <point x="427" y="614" type="qcurve" />
      <point x="391" y="614" />
      <point x="343" y="651" />
    </contour>
  </outline>
</glyph>
<glyph name="copyright" format="2">
  <unicode hex="00A9" />
  <advance width="824" />
  <outline>
    <contour>
      <point x="413" y="128" type="qcurve" />
      <point x="305" y="128" />
      <point x="196" y="254" />
      <point x="196" y="359" type="qcurve" />
      <point x="196" y="427" />
      <point x="243" y="529" />
      <point x="338" y="585" />
      <point x="408" y="585" type="qcurve" />
      <point x="453" y="585" />
      <point x="529" y="565" />
      <point x="565" y="547" type="qcurve" />
      <point x="520" y="447" type="line" />
      <point x="495" y="461" />
      <point x="446" y="474" />
      <point x="417" y="474" type="qcurve" />
      <point x="378" y="474" />
      <point x="333" y="414" />
      <point x="333" y="357" type="qcurve" />
      <point x="333" y="295" />
      <point x="376" y="239" />
      <point x="420" y="239" type="qcurve" />
      <point x="452" y="239" />
      <point x="516" y="255" />
      <point x="546" y="272" type="qcurve" />
      <point x="546" y="159" type="line" />
      <point x="515" y="143" />
      <point x="452" y="128" />
    </contour>
    <contour>
      <point x="412" y="-10" type="qcurve" />
      <point x="332" y="-10" />
      <point x="198" y="44" />
      <point x="99" y="143" />
      <point x="45" y="277" />
      <point x="45" y="357" type="qcurve" />
      <point x="45" y="437" />
      <point x="99" y="571" />
      <point x="198" y="670" />
      <point x="332" y="724" />
      <point x="412" y="724" type="qcurve" />
      <point x="492" y="724" />
      <point x="626" y="670" />
      <point x="725" y="571" />
      <point x="779" y="437" />
      <point x="779" y="357" type="qcurve" />
      <point x="779" y="277" />
      <point x="725" y="143" />
      <point x="626" y="44" />
      <point x="492" y="-10" />
    </contour>
    <contour>
      <point x="412" y="70" type="qcurve" />
      <point x="473" y="70" />
      <point x="575" y="112" />
      <point x="649" y="188" />
      <point x="689" y="294" />
      <point x="689" y="357" type="qcurve" />
      <point x="689" y="420" />
      <point x="649" y="526" />
      <point x="575" y="602" />
      <point x="473" y="644" />
      <point x="412" y="644" type="qcurve" />
      <point x="350" y="644" />
      <point x="248" y="602" />
      <point x="173" y="526" />
      <point x="133" y="420" />
      <point x="133" y="357" type="qcurve" />
      <point x="133" y="294" />
      <point x="173" y="188" />
      <point x="248" y="112" />
      <point x="350" y="70" />
    </contour>
  </outline>
</glyph>
<glyph name="ordfeminine" format="2">
  <unicode hex="00AA" />
  <advance width="397" />
  <outline>
    <contour>
      <point x="213" y="722" type="qcurve" />
      <point x="278" y="722" />
      <point x="358" y="652" />
      <point x="358" y="581" type="qcurve" />
      <point x="358" y="362" type="line" />
      <point x="279" y="362" type="line" />
      <point x="257" y="424" type="line" />
      <point x="235" y="390" />
      <point x="182" y="356" />
      <point x="138" y="356" type="qcurve" />
      <point x="106" y="356" />
      <point x="54" y="381" />
      <point x="24" y="433" />
      <point x="24" y="472" type="qcurve" />
      <point x="24" y="515" />
      <point x="63" y="563" />
      <point x="138" y="585" />
      <point x="192" y="587" type="qcurve" />
      <point x="235" y="589" type="line" />
      <point x="235" y="592" type="line" />
      <point x="235" y="612" />
      <point x="210" y="629" />
      <point x="185" y="629" type="qcurve" />
      <point x="159" y="629" />
      <point x="114" y="616" />
      <point x="82" y="602" type="qcurve" />
      <point x="45" y="683" type="line" />
      <point x="82" y="701" />
      <point x="154" y="722" />
    </contour>
    <contour>
      <point x="194" y="519" type="line" />
      <point x="164" y="517" />
      <point x="147" y="492" />
      <point x="147" y="478" type="qcurve" />
      <point x="147" y="462" />
      <point x="165" y="445" />
      <point x="181" y="445" type="qcurve" />
      <point x="208" y="445" />
      <point x="235" y="486" />
      <point x="235" y="511" type="qcurve" />
      <point x="235" y="522" type="line" />
    </contour>
  </outline>
</glyph>
<glyph name="registered" format="2">
  <unicode hex="00AE" />
  <advance width="824" />
  <outline>
    <contour>
      <point x="253" y="153" type="line" />
      <point x="253" y="580" type="line" />
      <point x="389" y="580" type="line" />
      <point x="493" y="580" />
      <point x="582" y="511" />
      <point x="582" y="448" type="qcurve" />
      <point x="582" y="397" />
      <point x="542" y="344" />
      <point x="513" y="330" type="qcurve" />
      <point x="608" y="153" type="line" />
      <point x="472" y="153" type="line" />
      <point x="401" y="309" type="line" />
      <point x="384" y="309" type="line" />
      <point x="384" y="153" type="line" />
    </contour>
    <contour>
      <point x="389" y="395" type="line" />
      <point x="418" y="395" />
      <point x="450" y="416" />
      <point x="450" y="443" type="qcurve" />
      <point x="450" y="469" />
      <point x="418" y="485" />
      <point x="390" y="485" type="qcurve" />
      <point x="384" y="485" type="line" />
      <point x="384" y="395" type="line" />
    </contour>
    <contour>
      <point x="412" y="-10" type="qcurve" />
      <point x="332" y="-10" />
      <point x="198" y="44" />
      <point x="99" y="143" />
      <point x="45" y="277" />
      <point x="45" y="357" type="qcurve" />
      <point x="45" y="437" />
      <point x="99" y="571" />
      <point x="198" y="670" />
      <point x="332" y="724" />
      <point x="412" y="724" type="qcurve" />
      <point x="492" y="724" />
      <point x="626" y="670" />
      <point x="725" y="571" />
      <point x="779" y="437" />
      <point x="779" y="357" type="qcurve" />
      <point x="779" y="277" />
      <point x="725" y="143" />
      <point x="626" y="44" />
      <point x="492" y="-10" />
    </contour>
    <contour>
      <point x="412" y="70" type="qcurve" />
      <point x="473" y="70" />
      <point x="575" y="112" />
      <point x="649" y="188" />
      <point x="689" y="294" />
      <point x="689" y="357" type="qcurve" />
      <point x="689" y="420" />
      <point x="649" y="526" />
      <point x="575" y="602" />
      <point x="473" y="644" />
      <point x="412" y="644" type="qcurve" />
      <point x="350" y="644" />
      <point x="248" y="602" />
      <point x="173" y="526" />
      <point x="133" y="420" />
      <point x="133" y="357" type="qcurve" />
      <point x="133" y="294" />
      <point x="173" y="188" />
      <point x="248" y="112" />
      <point x="350" y="70" />
    </contour>
  </outline>
</glyph>
<glyph name="overscore" format="2">
  <unicode hex="00AF" />
  <advance width="500" />
  <outline>
    <contour>
      <point x="503" y="760" type="line" />
      <point x="-3" y="760" type="line" />
      <point x="-3" y="880" type="line" />
      <point x="503" y="880" type="line" />
    </contour>
  </outline>
</glyph>
<glyph name="degree" format="2">
  <unicode hex="00B0" />
  <advance width="422" />
  <outline>
    <contour>
      <point x="211" y="366" type="qcurve" />
      <point x="159" y="366" />
      <point x="77" y="411" />
      <point x="31" y="491" />
      <point x="31" y="544" type="qcurve" />
      <point x="31" y="596" />
      <point x="77" y="677" />
      <point x="159" y="724" />
      <point x="211" y="724" type="qcurve" />
      <point x="263" y="724" />
      <point x="345" y="677" />
      <point x="391" y="596" />
      <point x="391" y="544" type="qcurve" />
      <point x="391" y="491" />
      <point x="345" y="411" />
      <point x="263" y="366" />
    </contour>
    <contour>
      <point x="211" y="482" type="qcurve" />
      <point x="240" y="482" />
      <point x="275" y="516" />
      <point x="275" y="543" type="qcurve" />
      <point x="275" y="573" />
      <point x="240" y="609" />
      <point x="211" y="609" type="qcurve" />
      <point x="182" y="609" />
      <point x="147" y="573" />
      <point x="147" y="543" type="qcurve" />
      <point x="147" y="516" />
      <point x="182" y="482" />
    </contour>
  </outline>
</glyph>
<glyph name="plusminus" format="2">
  <unicode hex="00B1" />
  <advance width="586" />
  <outline>
    <contour>
      <point x="45" y="0" type="line" />
      <point x="45" y="131" type="line" />
      <point x="540" y="131" type="line" />
      <point x="540" y="0" type="line" />
    </contour>
    <contour>
      <point x="358" y="461" type="line" />
      <point x="540" y="461" type="line" />
      <point x="540" y="330" type="line" />
      <point x="358" y="330" type="line" />
      <point x="358" y="154" type="line" />
      <point x="227" y="154" type="line" />
      <point x="227" y="330" type="line" />
      <point x="45" y="330" type="line" />
      <point x="45" y="461" type="line" />
      <point x="227" y="461" type="line" />
      <point x="227" y="640" type="line" />
      <point x="358" y="640" type="line" />
    </contour>
  </outline>
</glyph>
<glyph name="uni00B2" format="2">
  <unicode hex="00B2" />
  <advance width="399" />
  <outline>
    <contour>
      <point x="366" y="416" type="line" />
      <point x="37" y="416" type="line" />
      <point x="37" y="517" type="line" />
      <point x="142" y="621" type="line" />
      <point x="170" y="649" />
      <point x="202" y="687" />
      <point x="215" y="713" />
      <point x="215" y="723" type="qcurve" />
      <point x="215" y="737" />
      <point x="198" y="751" />
      <point x="183" y="751" type="qcurve" />
      <point x="167" y="751" />
      <point x="127" y="734" />
      <point x="99" y="708" type="qcurve" />
      <point x="30" y="789" type="line" />
      <point x="63" y="819" />
      <point x="146" y="855" />
      <point x="211" y="855" type="qcurve" />
      <point x="283" y="855" />
      <point x="356" y="791" />
      <point x="356" y="739" type="qcurve" />
      <point x="356" y="700" />
      <point x="320" y="637" />
      <point x="262" y="581" />
      <point x="229" y="553" type="qcurve" />
      <point x="197" y="526" type="line" />
      <point x="366" y="526" type="line" />
    </contour>
  </outline>
</glyph>
<glyph name="uni00B3" format="2">
  <unicode hex="00B3" />
  <advance width="399" />
  <outline>
    <contour>
      <point x="198" y="853" type="qcurve" />
      <point x="272" y="853" />
      <point x="354" y="795" />
      <point x="354" y="748" type="qcurve" />
      <point x="354" y="711" />
      <point x="318" y="657" />
      <point x="275" y="641" type="qcurve" />
      <point x="275" y="637" type="line" />
      <point x="322" y="625" />
      <point x="368" y="574" />
      <point x="368" y="532" type="qcurve" />
      <point x="368" y="472" />
      <point x="271" y="408" />
      <point x="185" y="408" type="qcurve" />
      <point x="142" y="408" />
      <point x="64" y="425" />
      <point x="34" y="442" type="qcurve" />
      <point x="34" y="556" type="line" />
      <point x="66" y="534" />
      <point x="140" y="516" />
      <point x="179" y="516" type="qcurve" />
      <point x="205" y="516" />
      <point x="236" y="531" />
      <point x="236" y="549" type="qcurve" />
      <point x="236" y="563" />
      <point x="214" y="584" />
      <point x="170" y="584" type="qcurve" />
      <point x="119" y="584" type="line" />
      <point x="119" y="679" type="line" />
      <point x="158" y="679" type="line" />
      <point x="199" y="679" />
      <point x="226" y="701" />
      <point x="226" y="717" type="qcurve" />
      <point x="226" y="729" />
      <point x="206" y="750" />
      <point x="181" y="750" type="qcurve" />
      <point x="157" y="750" />
      <point x="114" y="734" />
      <point x="88" y="714" type="qcurve" />
      <point x="31" y="797" type="line" />
      <point x="61" y="820" />
      <point x="145" y="853" />
    </contour>
  </outline>
</glyph>
<glyph name="acute" format="2">
  <unicode hex="00B4" />
  <advance width="418" />
  <outline>
    <contour>
      <point x="378" y="756" type="line" />
      <point x="360" y="742" />
      <point x="306" y="701" />
      <point x="244" y="658" />
      <point x="187" y="619" />
      <point x="167" y="606" type="qcurve" />
      <point x="40" y="606" type="line" />
      <point x="40" y="620" type="line" />
      <point x="57" y="639" />
      <point x="105" y="690" />
      <point x="153" y="744" />
      <point x="169" y="766" type="qcurve" />
      <point x="378" y="766" type="line" />
    </contour>
  </outline>
</glyph>
<glyph name="uni00B5" format="2">
  <unicode hex="00B5" />
  <advance width="672" />
  <outline>
    <contour>
      <point x="606" y="553" type="line" />
      <point x="606" y="0" type="line" />
      <point x="463" y="0" type="line" />
      <point x="437" y="74" type="line" />
      <point x="429" y="74" type="line" />
      <point x="418" y="46" />
      <point x="386" y="8" />
      <point x="347" y="-10" />
      <point x="325" y="-10" type="qcurve" />
      <point x="298" y="-10" />
      <point x="267" y="10" />
      <point x="253" y="31" type="qcurve" />
      <point x="251" y="31" type="line" />
      <point x="253" y="10" />
      <point x="257" y="-56" />
      <point x="257" y="-84" type="qcurve" />
      <point x="257" y="-240" type="line" />
      <point x="66" y="-240" type="line" />
      <point x="66" y="553" type="line" />
      <point x="257" y="553" type="line" />
      <point x="257" y="253" type="line" />
      <point x="257" y="197" />
      <point x="290" y="141" />
      <point x="328" y="141" type="qcurve" />
      <point x="361" y="141" />
      <point x="398" y="180" />
      <point x="414" y="256" />
      <point x="414" y="311" type="qcurve" />
      <point x="414" y="553" type="line" />
    </contour>
  </outline>
</glyph>
<glyph name="paragraph" format="2">
  <unicode hex="00B6" />
  <advance width="643" />
  <outline>
    <contour>
      <point x="579" y="-127" type="line" />
      <point x="486" y="-127" type="line" />
      <point x="486" y="648" type="line" />
      <point x="409" y="648" type="line" />
      <point x="409" y="-127" type="line" />
      <point x="316" y="-127" type="line" />
      <point x="316" y="273" type="line" />
      <point x="301" y="269" />
      <point x="276" y="264" />
      <point x="255" y="264" type="qcurve" />
      <point x="193" y="264" />
      <point x="101" y="310" />
      <point x="50" y="418" />
      <point x="50" y="509" type="qcurve" />
      <point x="50" y="605" />
      <point x="105" y="714" />
      <point x="205" y="760" />
      <point x="270" y="760" type="qcurve" />
      <point x="579" y="760" type="line" />
    </contour>
  </outline>
</glyph>
<glyph name="cedilla" format="2">
  <unicode hex="00B8" />
  <advance width="288" />
  <outline>
    <contour>
      <point x="264" y="-123" type="qcurve" />
      <point x="264" y="-176" />
      <point x="191" y="-240" />
      <point x="130" y="-240" type="qcurve" />
      <point x="96" y="-240" />
      <point x="40" y="-230" />
      <point x="22" y="-223" type="qcurve" />
      <point x="22" y="-129" type="line" />
      <point x="39" y="-134" />
      <point x="71" y="-140" />
      <point x="87" y="-140" type="qcurve" />
      <point x="106" y="-140" />
      <point x="127" y="-125" />
      <point x="127" y="-112" type="qcurve" />
      <point x="127" y="-95" />
      <point x="94" y="-75" />
      <point x="56" y="-68" type="qcurve" />
      <point x="86" y="0" type="line" />
      <point x="181" y="0" type="line" />
      <point x="172" y="-30" type="line" />
      <point x="192" y="-34" />
      <point x="235" y="-54" />
      <point x="264" y="-91" />
    </contour>
  </outline>
</glyph>
<glyph name="uni00B9" format="2">
  <unicode hex="00B9" />
  <advance width="399" />
  <outline>
    <contour>
      <point x="301" y="844" type="line" />
      <point x="301" y="416" type="line" />
      <point x="163" y="416" type="line" />
      <point x="163" y="590" type="line" />
      <point x="163" y="601" />
      <point x="165" y="646" />
      <point x="167" y="689" />
      <point x="168" y="696" type="qcurve" />
      <point x="164" y="687" />
      <point x="146" y="668" />
      <point x="138" y="661" type="qcurve" />
      <point x="99" y="627" type="line" />
      <point x="28" y="710" type="line" />
      <point x="194" y="844" type="line" />
    </contour>
  </outline>
</glyph>
<glyph name="ordmasculine" format="2">
  <unicode hex="00BA" />
  <advance width="392" />
  <outline>
    <contour>
      <point x="369" y="539" type="qcurve" />
      <point x="369" y="451" />
      <point x="275" y="356" />
      <point x="194" y="356" type="qcurve" />
      <point x="120" y="356" />
      <point x="24" y="454" />
      <point x="24" y="539" type="qcurve" />
      <point x="24" y="627" />
      <point x="116" y="722" />
      <point x="197" y="722" type="qcurve" />
      <point x="246" y="722" />
      <point x="323" y="678" />
      <point x="369" y="597" />
    </contour>
    <contour>
      <point x="147" y="538" type="qcurve" />
      <point x="147" y="497" />
      <point x="171" y="455" />
      <point x="196" y="455" type="qcurve" />
      <point x="221" y="455" />
      <point x="244" y="497" />
      <point x="244" y="538" type="qcurve" />
      <point x="244" y="581" />
      <point x="221" y="624" />
      <point x="196" y="624" type="qcurve" />
      <point x="171" y="624" />
      <point x="147" y="581" />
    </contour>
  </outline>
</glyph>
<glyph name="onequarter" format="2">
  <unicode hex="00BC" />
  <advance width="887" />
  <outline>
    <contour>
      <point x="174" y="0" type="line" />
      <point x="542" y="714" type="line" />
      <point x="689" y="714" type="line" />
      <point x="321" y="0" type="line" />
    </contour>
    <contour>
      <point x="129" y="460" type="line" />
      <point x="129" y="470" />
      <point x="130" y="506" />
      <point x="132" y="548" />
      <point x="134" y="566" type="qcurve" />
      <point x="132" y="562" />
      <point x="116" y="543" />
      <point x="106" y="533" type="qcurve" />
      <point x="65" y="497" type="line" />
      <point x="-6" y="580" type="line" />
      <point x="160" y="714" type="line" />
      <point x="267" y="714" type="line" />
      <point x="267" y="286" type="line" />
      <point x="129" y="286" type="line" />
    </contour>
    <contour>
      <point x="683" y="0" type="line" />
      <point x="683" y="68" type="line" />
      <point x="502" y="68" type="line" />
      <point x="502" y="160" type="line" />
      <point x="673" y="431" type="line" />
      <point x="817" y="431" type="line" />
      <point x="817" y="166" type="line" />
      <point x="878" y="166" type="line" />
      <point x="878" y="68" type="line" />
      <point x="817" y="68" type="line" />
      <point x="817" y="0" type="line" />
    </contour>
    <contour>
      <point x="606" y="166" type="line" />
      <point x="683" y="166" type="line" />
      <point x="683" y="247" type="line" />
      <point x="683" y="264" />
      <point x="685" y="297" />
      <point x="686" y="313" type="qcurve" />
      <point x="676" y="288" />
      <point x="661" y="256" />
      <point x="656" y="248" type="qcurve" />
    </contour>
  </outline>
</glyph>
<glyph name="onehalf" format="2">
  <unicode hex="00BD" />
  <advance width="926" />
  <outline>
    <contour>
      <point x="186" y="0" type="line" />
      <point x="554" y="714" type="line" />
      <point x="701" y="714" type="line" />
      <point x="333" y="0" type="line" />
    </contour>
    <contour>
      <point x="129" y="460" type="line" />
      <point x="129" y="464" />
      <point x="130" y="496" />
      <point x="132" y="534" />
      <point x="134" y="564" />
      <point x="134" y="566" type="qcurve" />
      <point x="132" y="562" />
      <point x="113" y="540" />
      <point x="103" y="531" type="qcurve" />
      <point x="65" y="497" type="line" />
      <point x="-6" y="580" type="line" />
      <point x="160" y="714" type="line" />
      <point x="267" y="714" type="line" />
      <point x="267" y="286" type="line" />
      <point x="129" y="286" type="line" />
    </contour>
    <contour>
      <point x="564" y="0" type="line" />
      <point x="564" y="101" type="line" />
      <point x="669" y="205" type="line" />
      <point x="697" y="233" />
      <point x="728" y="269" />
      <point x="742" y="296" />
      <point x="742" y="307" type="qcurve" />
      <point x="742" y="321" />
      <point x="726" y="335" />
      <point x="710" y="335" type="qcurve" />
      <point x="691" y="335" />
      <point x="649" y="314" />
      <point x="626" y="292" type="qcurve" />
      <point x="557" y="373" type="line" />
      <point x="596" y="409" />
      <point x="681" y="439" />
      <point x="738" y="439" type="qcurve" />
      <point x="807" y="439" />
      <point x="883" y="378" />
      <point x="883" y="323" type="qcurve" />
      <point x="883" y="297" />
      <point x="866" y="251" />
      <point x="837" y="212" />
      <point x="820" y="195" type="qcurve" />
      <point x="724" y="110" type="line" />
      <point x="893" y="110" type="line" />
      <point x="893" y="0" type="line" />
    </contour>
  </outline>
</glyph>
<glyph name="threequarters" format="2">
  <unicode hex="00BE" />
  <advance width="922" />
  <outline>
    <contour>
      <point x="227" y="0" type="line" />
      <point x="595" y="714" type="line" />
      <point x="742" y="714" type="line" />
      <point x="374" y="0" type="line" />
    </contour>
    <contour>
      <point x="195" y="278" type="qcurve" />
      <point x="150" y="278" />
      <point x="75" y="295" />
      <point x="44" y="312" type="qcurve" />
      <point x="44" y="426" type="line" />
      <point x="73" y="406" />
      <point x="145" y="386" />
      <point x="189" y="386" type="qcurve" />
      <point x="218" y="386" />
      <point x="246" y="403" />
      <point x="246" y="419" type="qcurve" />
      <point x="246" y="439" />
      <point x="214" y="454" />
      <point x="180" y="454" type="qcurve" />
      <point x="129" y="454" type="line" />
      <point x="129" y="549" type="line" />
      <point x="168" y="549" type="line" />
      <point x="203" y="549" />
      <point x="236" y="567" />
      <point x="236" y="587" type="qcurve" />
      <point x="236" y="599" />
      <point x="216" y="620" />
      <point x="191" y="620" type="qcurve" />
      <point x="167" y="620" />
      <point x="124" y="604" />
      <point x="98" y="584" type="qcurve" />
      <point x="41" y="667" type="line" />
      <point x="78" y="695" />
      <point x="161" y="723" />
      <point x="208" y="723" type="qcurve" />
      <point x="280" y="723" />
      <point x="364" y="667" />
      <point x="364" y="618" type="qcurve" />
      <point x="364" y="580" />
      <point x="328" y="527" />
      <point x="285" y="511" type="qcurve" />
      <point x="285" y="507" type="line" />
      <point x="332" y="495" />
      <point x="378" y="444" />
      <point x="378" y="402" type="qcurve" />
      <point x="378" y="343" />
      <point x="282" y="278" />
    </contour>
    <contour>
      <point x="718" y="0" type="line" />
      <point x="718" y="68" type="line" />
      <point x="537" y="68" type="line" />
      <point x="537" y="160" type="line" />
      <point x="708" y="431" type="line" />
      <point x="852" y="431" type="line" />
      <point x="852" y="166" type="line" />
      <point x="913" y="166" type="line" />
      <point x="913" y="68" type="line" />
      <point x="852" y="68" type="line" />
      <point x="852" y="0" type="line" />
    </contour>
    <contour>
      <point x="641" y="166" type="line" />
      <point x="718" y="166" type="line" />
      <point x="718" y="247" type="line" />
      <point x="718" y="264" />
      <point x="720" y="297" />
      <point x="721" y="313" type="qcurve" />
      <point x="711" y="288" />
      <point x="696" y="256" />
      <point x="691" y="248" type="qcurve" />
    </contour>
  </outline>
</glyph>
<glyph name="questiondown" format="2">
  <unicode hex="00BF" />
  <advance width="505" />
  <outline>
    <contour>
      <point x="361" y="257" type="line" />
      <point x="361" y="227" />
      <point x="346" y="178" />
      <point x="307" y="134" />
      <point x="272" y="112" type="qcurve" />
      <point x="239" y="91" />
      <point x="207" y="60" />
      <point x="198" y="35" />
      <point x="198" y="21" type="qcurve" />
      <point x="198" y="1" />
      <point x="235" y="-23" />
      <point x="265" y="-23" type="qcurve" />
      <point x="302" y="-23" />
      <point x="388" y="4" />
      <point x="437" y="29" type="qcurve" />
      <point x="505" y="-104" type="line" />
      <point x="450" y="-135" />
      <point x="325" y="-173" />
      <point x="251" y="-173" type="qcurve" />
      <point x="140" y="-173" />
      <point x="18" y="-75" />
      <point x="18" y="5" type="qcurve" />
      <point x="18" y="44" />
      <point x="41" y="107" />
      <point x="93" y="163" />
      <point x="134" y="189" type="qcurve" />
      <point x="164" y="208" />
      <point x="197" y="234" />
      <point x="211" y="259" />
      <point x="211" y="274" type="qcurve" />
      <point x="211" y="299" type="line" />
      <point x="361" y="299" type="line" />
    </contour>
    <contour>
      <point x="382" y="470" type="qcurve" />
      <point x="382" y="418" />
      <point x="322" y="376" />
      <point x="279" y="376" type="qcurve" />
      <point x="238" y="376" />
      <point x="178" y="418" />
      <point x="178" y="470" type="qcurve" />
      <point x="178" y="520" />
      <point x="238" y="563" />
      <point x="279" y="563" type="qcurve" />
      <point x="322" y="563" />
      <point x="382" y="520" />
    </contour>
  </outline>
</glyph>
<glyph name="Eth" format="2">
  <unicode hex="00D0" />
  <advance width="734" />
  <outline>
    <contour>
      <point x="324" y="714" type="line" />
      <point x="439" y="714" />
      <point x="599" y="635" />
      <point x="683" y="483" />
      <point x="683" y="372" type="qcurve" />
      <point x="683" y="248" />
      <point x="590" y="82" />
      <point x="422" y="0" />
      <point x="308" y="0" type="qcurve" />
      <point x="77" y="0" type="line" />
      <point x="77" y="275" type="line" />
      <point x="15" y="275" type="line" />
      <point x="15" y="431" type="line" />
      <point x="77" y="431" type="line" />
      <point x="77" y="714" type="line" />
    </contour>
    <contour>
      <point x="326" y="558" type="qcurve" />
      <point x="270" y="558" type="line" />
      <point x="270" y="431" type="line" />
      <point x="373" y="431" type="line" />
      <point x="373" y="275" type="line" />
      <point x="270" y="275" type="line" />
      <point x="270" y="158" type="line" />
      <point x="313" y="158" type="line" />
      <point x="401" y="158" />
      <point x="483" y="260" />
      <point x="483" y="365" type="qcurve" />
      <point x="483" y="430" />
      <point x="448" y="516" />
      <point x="379" y="558" />
    </contour>
  </outline>
</glyph>
<glyph name="Oslash" format="2">
  <unicode hex="00D8" />
  <advance width="797" />
  <outline>
    <contour>
      <point x="745" y="358" type="qcurve" />
      <point x="745" y="275" />
      <point x="705" y="140" />
      <point x="621" y="42" />
      <point x="490" y="-10" />
      <point x="398" y="-10" type="qcurve" />
      <point x="355" y="-10" />
      <point x="280" y="1" />
      <point x="248" y="11" type="qcurve" />
      <point x="207" y="-53" type="line" />
      <point x="113" y="8" type="line" />
      <point x="154" y="69" type="line" />
      <point x="101" y="118" />
      <point x="51" y="265" />
      <point x="51" y="359" type="qcurve" />
      <point x="51" y="470" />
      <point x="125" y="635" />
      <point x="279" y="725" />
      <point x="399" y="725" type="qcurve" />
      <point x="446" y="725" />
      <point x="527" y="712" />
      <point x="560" y="698" type="qcurve" />
      <point x="597" y="756" type="line" />
      <point x="690" y="700" type="line" />
      <point x="650" y="639" type="line" />
      <point x="700" y="591" />
      <point x="745" y="447" />
    </contour>
    <contour>
      <point x="542" y="358" type="qcurve" />
      <point x="542" y="419" />
      <point x="533" y="461" type="qcurve" />
      <point x="341" y="158" type="line" />
      <point x="353" y="155" />
      <point x="382" y="151" />
      <point x="398" y="151" type="qcurve" />
      <point x="451" y="151" />
      <point x="514" y="201" />
      <point x="542" y="294" />
    </contour>
    <contour>
      <point x="254" y="358" type="qcurve" />
      <point x="254" y="324" />
      <point x="260" y="265" />
      <point x="268" y="241" type="qcurve" />
      <point x="465" y="553" type="line" />
      <point x="451" y="559" />
      <point x="417" y="567" />
      <point x="399" y="567" type="qcurve" />
      <point x="347" y="567" />
      <point x="283" y="516" />
      <point x="254" y="423" />
    </contour>
  </outline>
</glyph>
<glyph name="Thorn" format="2">
  <unicode hex="00DE" />
  <advance width="627" />
  <outline>
    <contour>
      <point x="595" y="383" type="qcurve" />
      <point x="595" y="334" />
      <point x="567" y="245" />
      <point x="504" y="174" />
      <point x="400" y="133" />
      <point x="324" y="133" type="qcurve" />
      <point x="270" y="133" type="line" />
      <point x="270" y="0" type="line" />
      <point x="77" y="0" type="line" />
      <point x="77" y="714" type="line" />
      <point x="270" y="714" type="line" />
      <point x="270" y="610" type="line" />
      <point x="324" y="610" type="line" />
      <point x="460" y="610" />
      <point x="595" y="492" />
    </contour>
    <contour>
      <point x="305" y="290" type="line" />
      <point x="330" y="290" />
      <point x="373" y="309" />
      <point x="400" y="350" />
      <point x="400" y="382" type="qcurve" />
      <point x="400" y="416" />
      <point x="362" y="454" />
      <point x="320" y="454" type="qcurve" />
      <point x="270" y="454" type="line" />
      <point x="270" y="290" type="line" />
    </contour>
  </outline>
</glyph>
<glyph name="germandbls" format="2">
  <unicode hex="00DF" />
  <advance width="750" />
  <outline>
    <contour>
      <point x="654" y="581" type="qcurve" />
      <point x="654" y="547" />
      <point x="628" y="495" />
      <point x="589" y="456" />
      <point x="549" y="426" />
      <point x="523" y="404" />
      <point x="523" y="396" type="qcurve" />
      <point x="523" y="384" />
      <point x="546" y="365" />
      <point x="591" y="341" />
      <point x="624" y="320" type="qcurve" />
      <point x="657" y="299" />
      <point x="700" y="256" />
      <point x="721" y="202" />
      <point x="721" y="163" type="qcurve" />
      <point x="721" y="107" />
      <point x="671" y="30" />
      <point x="572" y="-10" />
      <point x="500" y="-10" type="qcurve" />
      <point x="433" y="-10" />
      <point x="351" y="3" />
      <point x="319" y="19" type="qcurve" />
      <point x="319" y="161" type="line" />
      <point x="336" y="151" />
      <point x="384" y="133" />
      <point x="435" y="122" />
      <point x="455" y="122" type="qcurve" />
      <point x="483" y="122" />
      <point x="522" y="144" />
      <point x="522" y="164" type="qcurve" />
      <point x="522" y="175" />
      <point x="511" y="194" />
      <point x="472" y="220" />
      <point x="431" y="241" type="qcurve" />
      <point x="391" y="263" />
      <point x="343" y="301" />
      <point x="322" y="343" />
      <point x="322" y="369" type="qcurve" />
      <point x="322" y="400" />
      <point x="349" y="443" />
      <point x="390" y="476" />
      <point x="431" y="505" />
      <point x="458" y="538" />
      <point x="458" y="561" type="qcurve" />
      <point x="458" y="586" />
      <point x="409" y="619" />
      <point x="365" y="619" type="qcurve" />
      <point x="328" y="619" />
      <point x="280" y="595" />
      <point x="257" y="550" />
      <point x="257" y="517" type="qcurve" />
      <point x="257" y="0" type="line" />
      <point x="66" y="0" type="line" />
      <point x="66" y="537" type="line" />
      <point x="66" y="611" />
      <point x="144" y="712" />
      <point x="279" y="765" />
      <point x="365" y="765" type="qcurve" />
      <point x="449" y="765" />
      <point x="580" y="724" />
      <point x="654" y="643" />
    </contour>
  </outline>
</glyph>
<glyph name="ae" format="2">
  <unicode hex="00E6" />
  <advance width="935" />
  <outline>
    <contour>
      <point x="653" y="563" type="qcurve" />
      <point x="723" y="563" />
      <point x="831" y="507" />
      <point x="893" y="394" />
      <point x="893" y="309" type="qcurve" />
      <point x="893" y="225" type="line" />
      <point x="553" y="225" type="line" />
      <point x="555" y="185" />
      <point x="619" y="126" />
      <point x="680" y="126" type="qcurve" />
      <point x="718" y="126" />
      <point x="811" y="144" />
      <point x="858" y="168" type="qcurve" />
      <point x="858" y="31" type="line" />
      <point x="818" y="10" />
      <point x="726" y="-10" />
      <point x="655" y="-10" type="qcurve" />
      <point x="613" y="-10" />
      <point x="536" y="10" />
      <point x="470" y="51" />
      <point x="445" y="83" type="qcurve" />
      <point x="411" y="48" />
      <point x="350" y="7" />
      <point x="272" y="-10" />
      <point x="212" y="-10" type="qcurve" />
      <point x="166" y="-10" />
      <point x="86" y="29" />
      <point x="36" y="110" />
      <point x="36" y="172" type="qcurve" />
      <point x="36" y="234" />
      <point x="97" y="310" />
      <point x="206" y="347" />
      <point x="279" y="349" type="qcurve" />
      <point x="368" y="352" type="line" />
      <point x="368" y="361" type="line" />
      <point x="368" y="401" />
      <point x="328" y="428" />
      <point x="302" y="428" type="qcurve" />
      <point x="269" y="428" />
      <point x="188" y="407" />
      <point x="149" y="389" type="qcurve" />
      <point x="95" y="514" type="line" />
      <point x="142" y="539" />
      <point x="256" y="563" />
      <point x="317" y="563" type="qcurve" />
      <point x="364" y="563" />
      <point x="447" y="540" />
      <point x="481" y="517" type="qcurve" />
      <point x="516" y="541" />
      <point x="596" y="563" />
    </contour>
    <contour>
      <point x="328" y="245" type="line" />
      <point x="272" y="244" />
      <point x="231" y="206" />
      <point x="231" y="174" type="qcurve" />
      <point x="231" y="147" />
      <point x="261" y="125" />
      <point x="286" y="125" type="qcurve" />
      <point x="309" y="125" />
      <point x="346" y="145" />
      <point x="369" y="181" />
      <point x="369" y="204" type="qcurve" />
      <point x="369" y="247" type="line" />
    </contour>
    <contour>
      <point x="642" y="433" type="qcurve" />
      <point x="607" y="433" />
      <point x="560" y="394" />
      <point x="556" y="345" type="qcurve" />
      <point x="722" y="345" type="line" />
      <point x="722" y="369" />
      <point x="703" y="409" />
      <point x="668" y="433" />
    </contour>
  </outline>
</glyph>
<glyph name="eth" format="2">
  <unicode hex="00F0" />
  <advance width="641" />
  <outline>
    <contour>
      <point x="234" y="768" type="line" />
      <point x="273" y="752" />
      <point x="337" y="720" />
      <point x="364" y="702" type="qcurve" />
      <point x="466" y="769" type="line" />
      <point x="522" y="680" type="line" />
      <point x="451" y="633" type="line" />
      <point x="498" y="587" />
      <point x="562" y="485" />
      <point x="594" y="361" />
      <point x="594" y="283" type="qcurve" />
      <point x="594" y="193" />
      <point x="526" y="61" />
      <point x="402" y="-10" />
      <point x="317" y="-10" type="qcurve" />
      <point x="238" y="-10" />
      <point x="114" y="48" />
      <point x="43" y="161" />
      <point x="43" y="243" type="qcurve" />
      <point x="43" y="326" />
      <point x="105" y="438" />
      <point x="211" y="495" />
      <point x="277" y="495" type="qcurve" />
      <point x="310" y="495" />
      <point x="357" y="486" />
      <point x="388" y="468" />
      <point x="396" y="454" type="qcurve" />
      <point x="400" y="456" type="line" />
      <point x="386" y="483" />
      <point x="354" y="533" />
      <point x="330" y="557" type="qcurve" />
      <point x="241" y="499" type="line" />
      <point x="184" y="589" type="line" />
      <point x="254" y="634" type="line" />
      <point x="239" y="644" />
      <point x="200" y="668" />
      <point x="181" y="679" type="qcurve" />
    </contour>
    <contour>
      <point x="319" y="358" type="qcurve" />
      <point x="289" y="358" />
      <point x="254" y="334" />
      <point x="239" y="284" />
      <point x="239" y="244" type="qcurve" />
      <point x="239" y="209" />
      <point x="254" y="155" />
      <point x="290" y="126" />
      <point x="319" y="126" type="qcurve" />
      <point x="363" y="126" />
      <point x="399" y="196" />
      <point x="399" y="266" type="qcurve" />
      <point x="399" y="283" />
      <point x="389" y="316" />
      <point x="370" y="342" />
      <point x="340" y="358" />
    </contour>
  </outline>
</glyph>
<glyph name="divide" format="2">
  <unicode hex="00F7" />
  <advance width="586" />
  <outline>
    <contour>
      <point x="45" y="287" type="line" />
      <point x="45" y="418" type="line" />
      <point x="540" y="418" type="line" />
      <point x="540" y="287" type="line" />
    </contour>
    <contour>
      <point x="291" y="79" type="qcurve" />
      <point x="261" y="79" />
      <point x="216" y="118" />
      <point x="216" y="162" type="qcurve" />
      <point x="216" y="209" />
      <point x="260" y="245" />
      <point x="292" y="245" type="qcurve" />
      <point x="322" y="245" />
      <point x="369" y="209" />
      <point x="369" y="162" type="qcurve" />
      <point x="369" y="118" />
      <point x="322" y="79" />
    </contour>
    <contour>
      <point x="291" y="460" type="qcurve" />
      <point x="261" y="460" />
      <point x="216" y="499" />
      <point x="216" y="543" type="qcurve" />
      <point x="216" y="590" />
      <point x="260" y="626" />
      <point x="292" y="626" type="qcurve" />
      <point x="322" y="626" />
      <point x="369" y="590" />
      <point x="369" y="543" type="qcurve" />
      <point x="369" y="499" />
      <point x="322" y="460" />
    </contour>
  </outline>
</glyph>
<glyph name="oslash" format="2">
  <unicode hex="00F8" />
  <advance width="665" />
  <outline>
    <contour>
      <point x="622" y="278" type="qcurve" />
      <point x="622" y="186" />
      <point x="552" y="57" />
      <point x="422" y="-10" />
      <point x="331" y="-10" type="qcurve" />
      <point x="301" y="-10" />
      <point x="245" y="-1" />
      <point x="219" y="7" type="qcurve" />
      <point x="178" y="-57" type="line" />
      <point x="95" y="-5" type="line" />
      <point x="134" y="55" type="line" />
      <point x="91" y="92" />
      <point x="42" y="204" />
      <point x="42" y="278" type="qcurve" />
      <point x="42" y="415" />
      <point x="198" y="563" />
      <point x="334" y="563" type="qcurve" />
      <point x="365" y="563" />
      <point x="423" y="553" />
      <point x="448" y="544" type="qcurve" />
      <point x="483" y="598" type="line" />
      <point x="565" y="547" type="line" />
      <point x="532" y="496" type="line" />
      <point x="574" y="460" />
      <point x="622" y="350" />
    </contour>
    <contour>
      <point x="225" y="278" type="qcurve" />
      <point x="225" y="257" />
      <point x="227" y="222" />
      <point x="231" y="206" type="qcurve" />
      <point x="372" y="425" type="line" />
      <point x="363" y="428" />
      <point x="343" y="431" />
      <point x="332" y="431" type="qcurve" />
      <point x="273" y="431" />
      <point x="225" y="354" />
    </contour>
    <contour>
      <point x="439" y="278" type="qcurve" />
      <point x="439" y="296" />
      <point x="437" y="329" />
      <point x="434" y="342" type="qcurve" />
      <point x="296" y="126" type="line" />
      <point x="304" y="124" />
      <point x="323" y="122" />
      <point x="333" y="122" type="qcurve" />
      <point x="374" y="122" />
      <point x="420" y="158" />
      <point x="439" y="227" />
    </contour>
  </outline>
</glyph>
<glyph name="dcaron" format="2">
  <unicode hex="010F" />
  <advance width="643" />
  <outline>
    <contour>
      <point x="814" y="749" type="line" />
      <point x="800" y="725" />
      <point x="774" y="679" />
      <point x="746" y="630" />
      <point x="727" y="600" type="qcurve" />
      <point x="613" y="600" type="line" />
      <point x="613" y="614" type="line" />
      <point x="617" y="629" />
      <point x="625" y="666" />
      <point x="633" y="705" />
      <point x="639" y="744" />
      <point x="641" y="760" type="qcurve" />
      <point x="814" y="760" type="line" />
    </contour>
    <contour>
      <point x="238" y="-10" type="qcurve" />
      <point x="153" y="-10" />
      <point x="42" y="136" />
      <point x="42" y="276" type="qcurve" />
      <point x="42" y="418" />
      <point x="155" y="563" />
      <point x="245" y="563" type="qcurve" />
      <point x="282" y="563" />
      <point x="336" y="542" />
      <point x="376" y="505" />
      <point x="390" y="482" type="qcurve" />
      <point x="394" y="482" type="line" />
      <point x="390" y="503" />
      <point x="385" y="577" />
      <point x="385" y="612" type="qcurve" />
      <point x="385" y="760" type="line" />
      <point x="577" y="760" type="line" />
      <point x="577" y="0" type="line" />
      <point x="433" y="0" type="line" />
      <point x="392" y="70" type="line" />
      <point x="385" y="70" type="line" />
      <point x="372" y="48" />
      <point x="332" y="12" />
      <point x="276" y="-10" />
    </contour>
    <contour>
      <point x="316" y="141" type="qcurve" />
      <point x="362" y="141" />
      <point x="400" y="199" />
      <point x="401" y="259" type="qcurve" />
      <point x="401" y="274" type="line" />
      <point x="401" y="339" />
      <point x="364" y="409" />
      <point x="314" y="409" type="qcurve" />
      <point x="280" y="409" />
      <point x="235" y="343" />
      <point x="235" y="273" type="qcurve" />
      <point x="235" y="204" />
      <point x="280" y="141" />
    </contour>
  </outline>
</glyph>
<glyph name="eogonek" format="2">
  <unicode hex="0119" />
  <advance width="618" />
  <outline>
    <contour>
      <point x="447" y="-91" type="qcurve" />
      <point x="447" y="-110" />
      <point x="471" y="-130" />
      <point x="488" y="-130" type="qcurve" />
      <point x="503" y="-130" />
      <point x="533" y="-123" />
      <point x="543" y="-119" type="qcurve" />
      <point x="543" y="-227" type="line" />
      <point x="527" y="-232" />
      <point x="485" y="-240" />
      <point x="458" y="-240" type="qcurve" />
      <point x="401" y="-240" />
      <point x="323" y="-179" />
      <point x="323" y="-127" type="qcurve" />
      <point x="323" y="-104" />
      <point x="343" y="-57" />
      <point x="393" y="-5" />
      <point x="437" y="25" type="qcurve" />
      <point x="540" y="31" type="line" />
      <point x="500" y="-3" />
      <point x="460" y="-47" />
      <point x="447" y="-76" />
    </contour>
    <contour>
      <point x="315" y="563" type="qcurve" />
      <point x="396" y="563" />
      <point x="513" y="507" />
      <point x="576" y="395" />
      <point x="576" y="310" type="qcurve" />
      <point x="576" y="225" type="line" />
      <point x="235" y="225" type="line" />
      <point x="237" y="182" />
      <point x="298" y="126" />
      <point x="356" y="126" type="qcurve" />
      <point x="408" y="126" />
      <point x="494" y="146" />
      <point x="540" y="168" type="qcurve" />
      <point x="540" y="31" type="line" />
      <point x="500" y="10" />
      <point x="405" y="-10" />
      <point x="333" y="-10" type="qcurve" />
      <point x="249" y="-10" />
      <point x="118" y="49" />
      <point x="42" y="175" />
      <point x="42" y="273" type="qcurve" />
      <point x="42" y="373" />
      <point x="111" y="501" />
      <point x="234" y="563" />
    </contour>
    <contour>
      <point x="322" y="433" type="qcurve" />
      <point x="288" y="433" />
      <point x="243" y="391" />
      <point x="239" y="345" type="qcurve" />
      <point x="403" y="345" type="line" />
      <point x="403" y="370" />
      <point x="384" y="409" />
      <point x="348" y="433" />
    </contour>
  </outline>
</glyph>
<glyph name="uni0123" format="2">
  <unicode hex="0123" />
  <advance width="643" />
  <outline>
    <contour>
      <point x="414" y="752" type="line" />
      <point x="410" y="731" />
      <point x="401" y="679" />
      <point x="394" y="628" />
      <point x="392" y="606" type="qcurve" />
      <point x="218" y="606" type="line" />
      <point x="218" y="617" type="line" />
      <point x="232" y="642" />
      <point x="257" y="687" />
      <point x="285" y="737" />
      <point x="301" y="766" type="qcurve" />
      <point x="414" y="766" type="line" />
    </contour>
    <contour>
      <point x="243" y="563" type="qcurve" />
      <point x="301" y="563" />
      <point x="372" y="518" />
      <point x="394" y="485" type="qcurve" />
      <point x="398" y="485" type="line" />
      <point x="412" y="553" type="line" />
      <point x="577" y="553" type="line" />
      <point x="577" y="-1" type="line" />
      <point x="577" y="-79" />
      <point x="513" y="-185" />
      <point x="382" y="-240" />
      <point x="282" y="-240" type="qcurve" />
      <point x="215" y="-240" />
      <point x="113" y="-226" />
      <point x="66" y="-208" type="qcurve" />
      <point x="66" y="-49" type="line" />
      <point x="116" y="-70" />
      <point x="206" y="-91" />
      <point x="271" y="-91" type="qcurve" />
      <point x="329" y="-91" />
      <point x="386" y="-49" />
      <point x="386" y="-9" type="qcurve" />
      <point x="386" y="1" type="line" />
      <point x="386" y="14" />
      <point x="389" y="50" />
      <point x="392" y="70" type="qcurve" />
      <point x="386" y="70" type="line" />
      <point x="367" y="37" />
      <point x="297" y="-10" />
      <point x="240" y="-10" type="qcurve" />
      <point x="152" y="-10" />
      <point x="42" y="136" />
      <point x="42" y="276" type="qcurve" />
      <point x="42" y="416" />
      <point x="154" y="563" />
    </contour>
    <contour>
      <point x="315" y="415" type="qcurve" />
      <point x="289" y="415" />
      <point x="253" y="383" />
      <point x="236" y="320" />
      <point x="236" y="273" type="qcurve" />
      <point x="236" y="201" />
      <point x="276" y="138" />
      <point x="318" y="138" type="qcurve" />
      <point x="341" y="138" />
      <point x="373" y="153" />
      <point x="392" y="182" />
      <point x="401" y="226" />
      <point x="401" y="256" type="qcurve" />
      <point x="401" y="279" type="line" />
      <point x="401" y="322" />
      <point x="386" y="383" />
      <point x="349" y="415" />
    </contour>
  </outline>
</glyph>
<glyph name="hbar" format="2">
  <unicode hex="0127" />
  <advance width="680" />
  <outline>
    <contour>
      <point x="267" y="760" type="line" />
      <point x="267" y="688" type="line" />
      <point x="381" y="688" type="line" />
      <point x="381" y="570" type="line" />
      <point x="266" y="570" type="line" />
      <point x="266" y="550" type="line" />
      <point x="266" y="527" />
      <point x="261" y="459" />
      <point x="259" y="436" type="qcurve" />
      <point x="270" y="436" type="line" />
      <point x="288" y="464" />
      <point x="333" y="498" />
      <point x="388" y="514" />
      <point x="421" y="514" type="qcurve" />
      <point x="476" y="514" />
      <point x="564" y="472" />
      <point x="616" y="383" />
      <point x="616" y="312" type="qcurve" />
      <point x="616" y="0" type="line" />
      <point x="424" y="0" type="line" />
      <point x="424" y="253" type="line" />
      <point x="424" y="308" />
      <point x="392" y="364" />
      <point x="358" y="364" type="qcurve" />
      <point x="324" y="364" />
      <point x="284" y="324" />
      <point x="267" y="248" />
      <point x="267" y="193" type="qcurve" />
      <point x="267" y="0" type="line" />
      <point x="76" y="0" type="line" />
      <point x="76" y="570" type="line" />
      <point x="0" y="570" type="line" />
      <point x="0" y="688" type="line" />
      <point x="76" y="688" type="line" />
      <point x="76" y="760" type="line" />
    </contour>
  </outline>
</glyph>
<glyph name="dotlessi" format="2">
  <unicode hex="0131" />
  <advance width="325" />
  <outline>
    <contour>
      <point x="258" y="0" type="line" />
      <point x="67" y="0" type="line" />
      <point x="67" y="553" type="line" />
      <point x="258" y="553" type="line" />
    </contour>
  </outline>
</glyph>
<glyph name="kgreenlandic" format="2">
  <unicode hex="0138" />
  <advance width="659" />
  <outline>
    <contour>
      <point x="650" y="553" type="line" />
      <point x="452" y="311" type="line" />
      <point x="659" y="0" type="line" />
      <point x="444" y="0" type="line" />
      <point x="321" y="195" type="line" />
      <point x="258" y="147" type="line" />
      <point x="258" y="0" type="line" />
      <point x="66" y="0" type="line" />
      <point x="66" y="553" type="line" />
      <point x="258" y="553" type="line" />
      <point x="258" y="433" type="line" />
      <point x="258" y="392" />
      <point x="255" y="333" />
      <point x="253" y="314" type="qcurve" />
      <point x="257" y="314" type="line" />
      <point x="266" y="327" />
      <point x="296" y="373" />
      <point x="316" y="399" type="qcurve" />
      <point x="436" y="553" type="line" />
    </contour>
  </outline>
</glyph>
<glyph name="Lcaron" format="2">
  <unicode hex="013D" />
  <advance width="582" />
  <outline>
    <contour>
      <point x="575" y="703" type="line" />
      <point x="561" y="679" />
      <point x="535" y="633" />
      <point x="507" y="584" />
      <point x="488" y="554" type="qcurve" />
      <point x="374" y="554" type="line" />
      <point x="374" y="568" type="line" />
      <point x="378" y="583" />
      <point x="386" y="620" />
      <point x="394" y="659" />
      <point x="400" y="698" />
      <point x="402" y="714" type="qcurve" />
      <point x="575" y="714" type="line" />
    </contour>
    <contour>
      <point x="77" y="0" type="line" />
      <point x="77" y="714" type="line" />
      <point x="270" y="714" type="line" />
      <point x="270" y="156" type="line" />
      <point x="545" y="156" type="line" />
      <point x="545" y="0" type="line" />
    </contour>
  </outline>
</glyph>
<glyph name="lcaron" format="2">
  <unicode hex="013E" />
  <advance width="323" />
  <outline>
    <contour>
      <point x="489" y="749" type="line" />
      <point x="475" y="725" />
      <point x="449" y="679" />
      <point x="421" y="630" />
      <point x="402" y="600" type="qcurve" />
      <point x="288" y="600" type="line" />
      <point x="288" y="614" type="line" />
      <point x="292" y="629" />
      <point x="300" y="666" />
      <point x="308" y="705" />
      <point x="314" y="744" />
      <point x="316" y="760" type="qcurve" />
      <point x="489" y="760" type="line" />
    </contour>
    <contour>
      <point x="257" y="0" type="line" />
      <point x="66" y="0" type="line" />
      <point x="66" y="760" type="line" />
      <point x="257" y="760" type="line" />
    </contour>
  </outline>
</glyph>
<glyph name="Eng" format="2">
  <unicode hex="014A" />
  <advance width="834" />
  <outline>
    <contour>
      <point x="502" y="-239" type="qcurve" />
      <point x="466" y="-239" />
      <point x="412" y="-233" />
      <point x="393" y="-229" type="qcurve" />
      <point x="393" y="-79" type="line" />
      <point x="412" y="-82" />
      <point x="452" y="-89" />
      <point x="477" y="-89" type="qcurve" />
      <point x="516" y="-89" />
      <point x="566" y="-69" />
      <point x="593" y="-29" />
      <point x="595" y="0" type="qcurve" />
      <point x="243" y="503" type="line" />
      <point x="239" y="503" type="line" />
      <point x="241" y="484" />
      <point x="245" y="416" />
      <point x="248" y="337" />
      <point x="248" y="300" type="qcurve" />
      <point x="248" y="0" type="line" />
      <point x="77" y="0" type="line" />
      <point x="77" y="714" type="line" />
      <point x="309" y="714" type="line" />
      <point x="589" y="319" type="line" />
      <point x="593" y="319" type="line" />
      <point x="592" y="338" />
      <point x="588" y="410" />
      <point x="585" y="492" />
      <point x="585" y="525" type="qcurve" />
      <point x="585" y="714" type="line" />
      <point x="757" y="714" type="line" />
      <point x="757" y="-4" type="line" />
      <point x="757" y="-80" />
      <point x="692" y="-185" />
      <point x="577" y="-239" />
    </contour>
  </outline>
</glyph>
<glyph name="OE" format="2">
  <unicode hex="0152" />
  <advance width="957" />
  <outline>
    <contour>
      <point x="379" y="725" type="qcurve" />
      <point x="406" y="725" />
      <point x="479" y="719" />
      <point x="501" y="714" type="qcurve" />
      <point x="909" y="714" type="line" />
      <point x="909" y="559" type="line" />
      <point x="678" y="559" type="line" />
      <point x="678" y="447" type="line" />
      <point x="891" y="447" type="line" />
      <point x="891" y="292" type="line" />
      <point x="678" y="292" type="line" />
      <point x="678" y="157" type="line" />
      <point x="909" y="157" type="line" />
      <point x="909" y="0" type="line" />
      <point x="497" y="0" type="line" />
      <point x="476" y="-4" />
      <point x="404" y="-10" />
      <point x="378" y="-10" type="qcurve" />
      <point x="270" y="-10" />
      <point x="125" y="82" />
      <point x="51" y="248" />
      <point x="51" y="359" type="qcurve" />
      <point x="51" y="470" />
      <point x="123" y="634" />
      <point x="269" y="725" />
    </contour>
    <contour>
      <point x="380" y="567" type="qcurve" />
      <point x="348" y="567" />
      <point x="300" y="538" />
      <point x="269" y="484" />
      <point x="254" y="406" />
      <point x="254" y="358" type="qcurve" />
      <point x="254" y="294" />
      <point x="281" y="201" />
      <point x="337" y="151" />
      <point x="379" y="151" type="qcurve" />
      <point x="410" y="151" />
      <point x="467" y="162" />
      <point x="485" y="172" type="qcurve" />
      <point x="485" y="543" type="line" />
      <point x="469" y="554" />
      <point x="411" y="567" />
    </contour>
  </outline>
</glyph>
<glyph name="oe" format="2">
  <unicode hex="0153" />
  <advance width="980" />
  <outline>
    <contour>
      <point x="698" y="563" type="qcurve" />
      <point x="768" y="563" />
      <point x="876" y="507" />
      <point x="938" y="394" />
      <point x="938" y="309" type="qcurve" />
      <point x="938" y="225" type="line" />
      <point x="598" y="225" type="line" />
      <point x="600" y="185" />
      <point x="664" y="126" />
      <point x="725" y="126" type="qcurve" />
      <point x="763" y="126" />
      <point x="856" y="144" />
      <point x="903" y="168" type="qcurve" />
      <point x="903" y="31" type="line" />
      <point x="863" y="10" />
      <point x="771" y="-10" />
      <point x="700" y="-10" type="qcurve" />
      <point x="646" y="-10" />
      <point x="550" y="23" />
      <point x="513" y="57" type="qcurve" />
      <point x="477" y="24" />
      <point x="379" y="-10" />
      <point x="317" y="-10" type="qcurve" />
      <point x="237" y="-10" />
      <point x="113" y="57" />
      <point x="42" y="186" />
      <point x="42" y="278" type="qcurve" />
      <point x="42" y="370" />
      <point x="109" y="497" />
      <point x="233" y="563" />
      <point x="320" y="563" type="qcurve" />
      <point x="374" y="563" />
      <point x="467" y="532" />
      <point x="503" y="501" type="qcurve" />
      <point x="527" y="521" />
      <point x="584" y="548" />
      <point x="655" y="563" />
    </contour>
    <contour>
      <point x="318" y="421" type="qcurve" />
      <point x="275" y="421" />
      <point x="237" y="349" />
      <point x="237" y="278" type="qcurve" />
      <point x="237" y="231" />
      <point x="253" y="165" />
      <point x="289" y="132" />
      <point x="319" y="132" type="qcurve" />
      <point x="349" y="132" />
      <point x="384" y="165" />
      <point x="400" y="231" />
      <point x="400" y="278" type="qcurve" />
      <point x="400" y="325" />
      <point x="384" y="389" />
      <point x="348" y="421" />
    </contour>
    <contour>
      <point x="687" y="433" type="qcurve" />
      <point x="652" y="433" />
      <point x="605" y="394" />
      <point x="601" y="345" type="qcurve" />
      <point x="767" y="345" type="line" />
      <point x="767" y="369" />
      <point x="748" y="409" />
      <point x="713" y="433" />
    </contour>
  </outline>
</glyph>
<glyph name="tcaron" format="2">
  <unicode hex="0165" />
  <advance width="460" />
  <outline>
    <contour>
      <point x="632" y="749" type="line" />
      <point x="618" y="725" />
      <point x="592" y="679" />
      <point x="564" y="630" />
      <point x="545" y="600" type="qcurve" />
      <point x="431" y="600" type="line" />
      <point x="431" y="614" type="line" />
      <point x="435" y="629" />
      <point x="443" y="666" />
      <point x="451" y="705" />
      <point x="457" y="744" />
      <point x="459" y="760" type="qcurve" />
      <point x="632" y="760" type="line" />
    </contour>
    <contour>
      <point x="337" y="141" type="qcurve" />
      <point x="363" y="141" />
      <point x="406" y="152" />
      <point x="429" y="160" type="qcurve" />
      <point x="429" y="21" type="line" />
      <point x="398" y="8" />
      <point x="328" y="-10" />
      <point x="274" y="-10" type="qcurve" />
      <point x="220" y="-10" />
      <point x="139" y="24" />
      <point x="93" y="107" />
      <point x="93" y="182" type="qcurve" />
      <point x="93" y="410" type="line" />
      <point x="26" y="410" type="line" />
      <point x="26" y="488" type="line" />
      <point x="111" y="548" type="line" />
      <point x="160" y="664" type="line" />
      <point x="285" y="664" type="line" />
      <point x="285" y="553" type="line" />
      <point x="421" y="553" type="line" />
      <point x="421" y="410" type="line" />
      <point x="285" y="410" type="line" />
      <point x="285" y="195" type="line" />
      <point x="285" y="168" />
      <point x="312" y="141" />
    </contour>
  </outline>
</glyph>
<glyph name="Tbar" format="2">
  <unicode hex="0166" />
  <advance width="591" />
  <outline>
    <contour>
      <point x="199" y="0" type="line" />
      <point x="199" y="267" type="line" />
      <point x="98" y="267" type="line" />
      <point x="98" y="426" type="line" />
      <point x="199" y="426" type="line" />
      <point x="199" y="556" type="line" />
      <point x="25" y="556" type="line" />
      <point x="25" y="714" type="line" />
      <point x="566" y="714" type="line" />
      <point x="566" y="556" type="line" />
      <point x="392" y="556" type="line" />
      <point x="392" y="426" type="line" />
      <point x="495" y="426" type="line" />
      <point x="495" y="267" type="line" />
      <point x="392" y="267" type="line" />
      <point x="392" y="0" type="line" />
    </contour>
  </outline>
</glyph>
<glyph name="Uogonek" format="2">
  <unicode hex="0172" />
  <advance width="757" />
  <outline>
    <contour>
      <point x="519" y="-88" type="qcurve" />
      <point x="519" y="-113" />
      <point x="540" y="-130" />
      <point x="557" y="-130" type="qcurve" />
      <point x="570" y="-130" />
      <point x="605" y="-123" />
      <point x="615" y="-119" type="qcurve" />
      <point x="615" y="-227" type="line" />
      <point x="599" y="-232" />
      <point x="557" y="-240" />
      <point x="530" y="-240" type="qcurve" />
      <point x="473" y="-240" />
      <point x="395" y="-177" />
      <point x="395" y="-118" type="qcurve" />
      <point x="395" y="-93" />
      <point x="415" y="-37" />
      <point x="465" y="25" />
      <point x="509" y="59" type="qcurve" />
      <point x="618" y="83" type="line" />
      <point x="588" y="48" />
      <point x="543" y="-8" />
      <point x="519" y="-59" />
    </contour>
    <contour>
      <point x="684" y="284" type="line" />
      <point x="684" y="194" />
      <point x="616" y="62" />
      <point x="479" y="-10" />
      <point x="376" y="-10" type="qcurve" />
      <point x="228" y="-10" />
      <point x="73" y="141" />
      <point x="73" y="280" type="qcurve" />
      <point x="73" y="714" type="line" />
      <point x="267" y="714" type="line" />
      <point x="267" y="295" type="line" />
      <point x="267" y="219" />
      <point x="324" y="151" />
      <point x="379" y="151" type="qcurve" />
      <point x="419" y="151" />
      <point x="468" y="181" />
      <point x="491" y="245" />
      <point x="491" y="296" type="qcurve" />
      <point x="491" y="714" type="line" />
      <point x="684" y="714" type="line" />
    </contour>
  </outline>
</glyph>
<glyph name="longs" format="2">
  <unicode hex="017F" />
  <advance width="403" />
  <outline>
    <contour>
      <point x="310" y="628" type="qcurve" />
      <point x="278" y="628" />
      <point x="257" y="592" />
      <point x="257" y="555" type="qcurve" />
      <point x="257" y="0" type="line" />
      <point x="66" y="0" type="line" />
      <point x="66" y="559" type="line" />
      <point x="66" y="646" />
      <point x="116" y="734" />
      <point x="207" y="765" />
      <point x="269" y="765" type="qcurve" />
      <point x="321" y="765" />
      <point x="398" y="750" />
      <point x="423" y="739" type="qcurve" />
      <point x="386" y="612" type="line" />
      <point x="368" y="617" />
      <point x="333" y="628" />
    </contour>
  </outline>
</glyph>
<glyph name="uni0180" format="2">
  <unicode hex="0180" />
  <advance width="650" />
  <outline>
    <contour>
      <point x="408" y="-10" type="qcurve" />
      <point x="367" y="-10" />
      <point x="315" y="9" />
      <point x="281" y="38" />
      <point x="267" y="51" type="qcurve" />
      <point x="255" y="51" type="line" />
      <point x="225" y="0" type="line" />
      <point x="73" y="0" type="line" />
      <point x="73" y="567" type="line" />
      <point x="-3" y="567" type="line" />
      <point x="-3" y="690" type="line" />
      <point x="73" y="690" type="line" />
      <point x="73" y="760" type="line" />
      <point x="267" y="760" type="line" />
      <point x="267" y="690" type="line" />
      <point x="387" y="690" type="line" />
      <point x="387" y="567" type="line" />
      <point x="267" y="567" type="line" />
      <point x="267" y="570" type="line" />
      <point x="267" y="542" />
      <point x="264" y="496" />
      <point x="260" y="473" type="qcurve" />
      <point x="267" y="473" type="line" />
      <point x="285" y="500" />
      <point x="354" y="548" />
      <point x="413" y="548" type="qcurve" />
      <point x="468" y="548" />
      <point x="558" y="497" />
      <point x="611" y="379" />
      <point x="611" y="278" type="qcurve" />
      <point x="611" y="179" />
      <point x="557" y="51" />
      <point x="465" y="-10" />
    </contour>
    <contour>
      <point x="347" y="146" type="qcurve" />
      <point x="374" y="146" />
      <point x="413" y="214" />
      <point x="413" y="280" type="qcurve" />
      <point x="413" y="345" />
      <point x="373" y="395" />
      <point x="344" y="395" type="qcurve" />
      <point x="325" y="395" />
      <point x="291" y="373" />
      <point x="269" y="326" />
      <point x="267" y="288" type="qcurve" />
      <point x="267" y="283" type="line" />
      <point x="267" y="217" />
      <point x="301" y="146" />
    </contour>
  </outline>
</glyph>
<glyph name="uni0181" format="2">
  <unicode hex="0181" />
  <advance width="830" />
  <outline>
    <contour>
      <point x="228" y="0" type="line" />
      <point x="228" y="554" type="line" />
      <point x="202" y="554" type="line" />
      <point x="179" y="554" />
      <point x="156" y="527" />
      <point x="156" y="510" type="qcurve" />
      <point x="156" y="493" />
      <point x="163" y="473" />
      <point x="166" y="465" type="qcurve" />
      <point x="16" y="465" type="line" />
      <point x="12" y="472" />
      <point x="3" y="502" />
      <point x="3" y="524" type="qcurve" />
      <point x="3" y="575" />
      <point x="41" y="661" />
      <point x="130" y="714" />
      <point x="208" y="714" type="qcurve" />
      <point x="461" y="714" type="line" />
      <point x="560" y="714" />
      <point x="695" y="682" />
      <point x="765" y="603" />
      <point x="765" y="533" type="qcurve" />
      <point x="765" y="472" />
      <point x="716" y="388" />
      <point x="672" y="380" type="qcurve" />
      <point x="672" y="374" type="line" />
      <point x="698" y="367" />
      <point x="749" y="334" />
      <point x="783" y="267" />
      <point x="783" y="208" type="qcurve" />
      <point x="783" y="146" />
      <point x="720" y="52" />
      <point x="600" y="0" />
      <point x="516" y="0" type="qcurve" />
    </contour>
    <contour>
      <point x="492" y="161" type="line" />
      <point x="547" y="161" />
      <point x="580" y="202" />
      <point x="580" y="230" type="qcurve" />
      <point x="580" y="246" />
      <point x="567" y="275" />
      <point x="528" y="293" />
      <point x="490" y="293" type="qcurve" />
      <point x="424" y="293" type="line" />
      <point x="424" y="161" type="line" />
    </contour>
    <contour>
      <point x="481" y="447" type="line" />
      <point x="531" y="447" />
      <point x="564" y="477" />
      <point x="564" y="504" type="qcurve" />
      <point x="564" y="532" />
      <point x="523" y="554" />
      <point x="475" y="554" type="qcurve" />
      <point x="424" y="554" type="line" />
      <point x="424" y="447" type="line" />
    </contour>
  </outline>
</glyph>
<glyph name="uni0182" format="2">
  <unicode hex="0182" />
  <advance width="647" />
  <outline>
    <contour>
      <point x="77" y="0" type="line" />
      <point x="77" y="714" type="line" />
      <point x="547" y="714" type="line" />
      <point x="547" y="559" type="line" />
      <point x="270" y="559" type="line" />
      <point x="270" y="462" type="line" />
      <point x="340" y="462" type="line" />
      <point x="432" y="462" />
      <point x="550" y="406" />
      <point x="608" y="307" />
      <point x="608" y="242" type="qcurve" />
      <point x="608" y="130" />
      <point x="456" y="0" />
      <point x="320" y="0" type="qcurve" />
    </contour>
    <contour>
      <point x="323" y="153" type="line" />
      <point x="370" y="153" />
      <point x="415" y="194" />
      <point x="415" y="233" type="qcurve" />
      <point x="415" y="258" />
      <point x="392" y="291" />
      <point x="352" y="309" />
      <point x="327" y="309" type="qcurve" />
      <point x="270" y="309" type="line" />
      <point x="270" y="153" type="line" />
    </contour>
  </outline>
</glyph>
<glyph name="uni0184" format="2">
  <unicode hex="0184" />
  <advance width="688" />
  <outline>
    <contour>
      <point x="362" y="-15" type="qcurve" />
      <point x="272" y="-15" />
      <point x="145" y="31" />
      <point x="78" y="131" />
      <point x="78" y="212" type="qcurve" />
      <point x="78" y="714" type="line" />
      <point x="274" y="714" type="line" />
      <point x="274" y="458" type="line" />
      <point x="339" y="458" type="line" />
      <point x="448" y="458" />
      <point x="585" y="395" />
      <point x="650" y="289" />
      <point x="650" y="224" type="qcurve" />
      <point x="650" y="115" />
      <point x="509" y="-15" />
    </contour>
    <contour>
      <point x="355" y="145" type="qcurve" />
      <point x="396" y="145" />
      <point x="452" y="181" />
      <point x="452" y="224" type="qcurve" />
      <point x="452" y="257" />
      <point x="418" y="288" />
      <point x="355" y="298" />
      <point x="312" y="298" type="qcurve" />
      <point x="274" y="298" type="line" />
      <point x="274" y="220" type="line" />
      <point x="274" y="183" />
      <point x="315" y="145" />
    </contour>
  </outline>
</glyph>
<glyph name="uni0185" format="2">
  <unicode hex="0185" />
  <advance width="652" />
  <outline>
    <contour>
      <point x="346" y="-10" type="qcurve" />
      <point x="260" y="-10" />
      <point x="136" y="58" />
      <point x="69" y="184" />
      <point x="69" y="271" type="qcurve" />
      <point x="69" y="760" type="line" />
      <point x="263" y="760" type="line" />
      <point x="263" y="591" type="line" />
      <point x="263" y="557" />
      <point x="259" y="509" />
      <point x="256" y="489" type="qcurve" />
      <point x="263" y="489" type="line" />
      <point x="283" y="516" />
      <point x="356" y="563" />
      <point x="414" y="563" type="qcurve" />
      <point x="470" y="563" />
      <point x="559" y="498" />
      <point x="612" y="371" />
      <point x="612" y="276" type="qcurve" />
      <point x="612" y="175" />
      <point x="539" y="49" />
      <point x="418" y="-10" />
    </contour>
    <contour>
      <point x="341" y="145" type="qcurve" />
      <point x="376" y="145" />
      <point x="415" y="200" />
      <point x="415" y="276" type="qcurve" />
      <point x="415" y="344" />
      <point x="374" y="410" />
      <point x="345" y="410" type="qcurve" />
      <point x="302" y="410" />
      <point x="263" y="355" />
      <point x="263" y="302" type="qcurve" />
      <point x="263" y="268" type="line" />
      <point x="263" y="198" />
      <point x="308" y="145" />
    </contour>
  </outline>
</glyph>
<glyph name="uni0186" format="2">
  <unicode hex="0186" />
  <advance width="649" />
  <outline>
    <contour>
      <point x="250" y="-10" type="qcurve" />
      <point x="197" y="-10" />
      <point x="104" y="11" />
      <point x="60" y="30" type="qcurve" />
      <point x="60" y="193" type="line" />
      <point x="105" y="174" />
      <point x="192" y="148" />
      <point x="239" y="148" type="qcurve" />
      <point x="292" y="148" />
      <point x="364" y="194" />
      <point x="400" y="286" />
      <point x="400" y="353" type="qcurve" />
      <point x="400" y="403" />
      <point x="380" y="482" />
      <point x="342" y="537" />
      <point x="288" y="566" />
      <point x="254" y="566" type="qcurve" />
      <point x="209" y="566" />
      <point x="120" y="544" />
      <point x="81" y="525" type="qcurve" />
      <point x="34" y="674" type="line" />
      <point x="89" y="700" />
      <point x="215" y="724" />
      <point x="267" y="724" type="qcurve" />
      <point x="351" y="724" />
      <point x="475" y="674" />
      <point x="557" y="580" />
      <point x="598" y="449" />
      <point x="598" y="368" type="qcurve" />
      <point x="598" y="260" />
      <point x="521" y="89" />
      <point x="367" y="-10" />
    </contour>
  </outline>
</glyph>
<glyph name="uni0187" format="2">
  <unicode hex="0187" />
  <advance width="644" />
  <outline>
    <contour>
      <point x="633" y="888" type="qcurve" />
      <point x="657" y="888" />
      <point x="701" y="877" />
      <point x="709" y="872" type="qcurve" />
      <point x="709" y="725" type="line" />
      <point x="700" y="728" />
      <point x="670" y="735" />
      <point x="653" y="735" type="qcurve" />
      <point x="631" y="735" />
      <point x="607" y="712" />
      <point x="607" y="684" type="qcurve" />
      <point x="607" y="655" type="line" />
      <point x="545" y="511" type="line" />
      <point x="505" y="529" />
      <point x="425" y="562" />
      <point x="387" y="562" type="qcurve" />
      <point x="356" y="562" />
      <point x="307" y="534" />
      <point x="275" y="480" />
      <point x="258" y="403" />
      <point x="258" y="354" type="qcurve" />
      <point x="258" y="288" />
      <point x="284" y="198" />
      <point x="343" y="152" />
      <point x="391" y="152" type="qcurve" />
      <point x="434" y="152" />
      <point x="523" y="176" />
      <point x="580" y="197" type="qcurve" />
      <point x="580" y="32" type="line" />
      <point x="528" y="10" />
      <point x="435" y="-10" />
      <point x="376" y="-10" type="qcurve" />
      <point x="263" y="-10" />
      <point x="122" y="81" />
      <point x="56" y="245" />
      <point x="56" y="355" type="qcurve" />
      <point x="56" y="436" />
      <point x="98" y="571" />
      <point x="181" y="670" />
      <point x="306" y="724" />
      <point x="388" y="724" type="qcurve" />
      <point x="405" y="724" />
      <point x="437" y="720" />
      <point x="453" y="717" type="qcurve" />
      <point x="453" y="712" type="line" />
      <point x="453" y="774" />
      <point x="503" y="851" />
      <point x="585" y="888" />
    </contour>
  </outline>
</glyph>
<glyph name="uni0188" format="2">
  <unicode hex="0188" />
  <advance width="532" />
  <outline>
    <contour>
      <point x="300" y="-10" type="qcurve" />
      <point x="218" y="-10" />
      <point x="101" y="46" />
      <point x="39" y="171" />
      <point x="39" y="274" type="qcurve" />
      <point x="39" y="381" />
      <point x="112" y="508" />
      <point x="237" y="563" />
      <point x="315" y="563" type="qcurve" />
      <point x="323" y="563" />
      <point x="341" y="563" />
      <point x="348" y="561" type="qcurve" />
      <point x="348" y="564" type="line" />
      <point x="348" y="638" />
      <point x="394" y="725" />
      <point x="476" y="764" />
      <point x="529" y="764" type="qcurve" />
      <point x="553" y="764" />
      <point x="596" y="752" />
      <point x="604" y="747" type="qcurve" />
      <point x="604" y="600" type="line" />
      <point x="595" y="603" />
      <point x="565" y="610" />
      <point x="548" y="610" type="qcurve" />
      <point x="526" y="610" />
      <point x="502" y="587" />
      <point x="502" y="559" type="qcurve" />
      <point x="502" y="513" type="line" />
      <point x="444" y="372" type="line" />
      <point x="409" y="388" />
      <point x="348" y="409" />
      <point x="316" y="409" type="qcurve" />
      <point x="289" y="409" />
      <point x="254" y="380" />
      <point x="237" y="321" />
      <point x="237" y="275" type="qcurve" />
      <point x="237" y="226" />
      <point x="258" y="170" />
      <point x="295" y="146" />
      <point x="319" y="146" type="qcurve" />
      <point x="370" y="146" />
      <point x="444" y="175" />
      <point x="480" y="202" type="qcurve" />
      <point x="480" y="38" type="line" />
      <point x="442" y="12" />
      <point x="364" y="-10" />
    </contour>
  </outline>
</glyph>
<glyph name="uni018A" format="2">
  <unicode hex="018A" />
  <advance width="893" />
  <outline>
    <contour>
      <point x="228" y="0" type="line" />
      <point x="228" y="554" type="line" />
      <point x="202" y="554" type="line" />
      <point x="179" y="554" />
      <point x="156" y="527" />
      <point x="156" y="510" type="qcurve" />
      <point x="156" y="493" />
      <point x="163" y="473" />
      <point x="166" y="465" type="qcurve" />
      <point x="16" y="465" type="line" />
      <point x="12" y="472" />
      <point x="3" y="502" />
      <point x="3" y="524" type="qcurve" />
      <point x="3" y="575" />
      <point x="41" y="661" />
      <point x="130" y="714" />
      <point x="208" y="714" type="qcurve" />
      <point x="466" y="714" type="line" />
      <point x="577" y="714" />
      <point x="747" y="634" />
      <point x="842" y="479" />
      <point x="842" y="364" type="qcurve" />
      <point x="842" y="244" />
      <point x="746" y="82" />
      <point x="568" y="0" />
      <point x="444" y="0" type="qcurve" />
    </contour>
    <contour>
      <point x="465" y="161" type="line" />
      <point x="554" y="161" />
      <point x="639" y="261" />
      <point x="639" y="359" type="qcurve" />
      <point x="639" y="428" />
      <point x="603" y="514" />
      <point x="534" y="554" />
      <point x="483" y="554" type="qcurve" />
      <point x="424" y="554" type="line" />
      <point x="424" y="161" type="line" />
    </contour>
  </outline>
</glyph>
<glyph name="uni018C" format="2">
  <unicode hex="018C" />
  <advance width="650" />
  <outline>
    <contour>
      <point x="236" y="-10" type="qcurve" />
      <point x="181" y="-10" />
      <point x="91" y="55" />
      <point x="39" y="184" />
      <point x="39" y="278" type="qcurve" />
      <point x="39" y="365" />
      <point x="93" y="485" />
      <point x="185" y="548" />
      <point x="242" y="548" type="qcurve" />
      <point x="282" y="548" />
      <point x="340" y="526" />
      <point x="380" y="492" />
      <point x="391" y="474" type="qcurve" />
      <point x="397" y="474" type="line" />
      <point x="397" y="467" />
      <point x="393" y="485" />
      <point x="387" y="520" />
      <point x="383" y="561" />
      <point x="383" y="578" type="qcurve" />
      <point x="383" y="616" type="line" />
      <point x="91" y="616" type="line" />
      <point x="91" y="760" type="line" />
      <point x="577" y="760" type="line" />
      <point x="577" y="0" type="line" />
      <point x="426" y="0" type="line" />
      <point x="389" y="66" type="line" />
      <point x="383" y="66" type="line" />
      <point x="371" y="47" />
      <point x="333" y="12" />
      <point x="276" y="-10" />
    </contour>
    <contour>
      <point x="312" y="143" type="qcurve" />
      <point x="356" y="143" />
      <point x="395" y="196" />
      <point x="397" y="254" type="qcurve" />
      <point x="397" y="273" type="line" />
      <point x="397" y="329" />
      <point x="359" y="393" />
      <point x="309" y="393" type="qcurve" />
      <point x="277" y="393" />
      <point x="235" y="331" />
      <point x="235" y="275" type="qcurve" />
      <point x="235" y="210" />
      <point x="278" y="143" />
    </contour>
  </outline>
</glyph>
<glyph name="uni018D" format="2">
  <unicode hex="018D" />
  <advance width="636" />
  <outline>
    <contour>
      <point x="334" y="563" type="qcurve" />
      <point x="413" y="563" />
      <point x="535" y="506" />
      <point x="604" y="401" />
      <point x="604" y="329" type="qcurve" />
      <point x="604" y="277" />
      <point x="570" y="187" />
      <point x="494" y="117" />
      <point x="431" y="95" type="qcurve" />
      <point x="464" y="76" />
      <point x="506" y="32" />
      <point x="527" y="-21" />
      <point x="527" y="-54" type="qcurve" />
      <point x="527" y="-102" />
      <point x="476" y="-173" />
      <point x="373" y="-212" />
      <point x="295" y="-212" type="qcurve" />
      <point x="254" y="-212" />
      <point x="174" y="-199" />
      <point x="102" y="-169" />
      <point x="74" y="-146" type="qcurve" />
      <point x="145" y="-12" type="line" />
      <point x="180" y="-44" />
      <point x="253" y="-74" />
      <point x="286" y="-74" type="qcurve" />
      <point x="307" y="-74" />
      <point x="333" y="-64" />
      <point x="345" y="-47" />
      <point x="345" y="-36" type="qcurve" />
      <point x="345" y="-24" />
      <point x="332" y="-6" />
      <point x="296" y="17" />
      <point x="262" y="36" type="qcurve" />
      <point x="183" y="81" />
      <point x="92" y="164" />
      <point x="55" y="258" />
      <point x="55" y="319" type="qcurve" />
      <point x="55" y="389" />
      <point x="122" y="499" />
      <point x="247" y="563" />
    </contour>
    <contour>
      <point x="331" y="421" type="qcurve" />
      <point x="304" y="421" />
      <point x="266" y="393" />
      <point x="247" y="344" />
      <point x="247" y="312" type="qcurve" />
      <point x="247" y="281" />
      <point x="266" y="233" />
      <point x="301" y="197" />
      <point x="324" y="184" type="qcurve" />
      <point x="345" y="192" />
      <point x="379" y="217" />
      <point x="403" y="250" />
      <point x="415" y="290" />
      <point x="415" y="314" type="qcurve" />
      <point x="415" y="347" />
      <point x="394" y="395" />
      <point x="356" y="421" />
    </contour>
  </outline>
</glyph>
<glyph name="uni018E" format="2">
  <unicode hex="018E" />
  <advance width="549" />
  <outline>
    <contour>
      <point x="48" y="0" type="line" />
      <point x="48" y="157" type="line" />
      <point x="279" y="157" type="line" />
      <point x="279" y="292" type="line" />
      <point x="65" y="292" type="line" />
      <point x="65" y="447" type="line" />
      <point x="279" y="447" type="line" />
      <point x="279" y="559" type="line" />
      <point x="48" y="559" type="line" />
      <point x="48" y="714" type="line" />
      <point x="472" y="714" type="line" />
      <point x="472" y="0" type="line" />
    </contour>
  </outline>
</glyph>
<glyph name="uni0190" format="2">
  <unicode hex="0190" />
  <advance width="636" />
  <outline>
    <contour>
      <point x="331" y="726" type="qcurve" />
      <point x="423" y="726" />
      <point x="550" y="682" />
      <point x="606" y="646" type="qcurve" />
      <point x="527" y="517" type="line" />
      <point x="492" y="539" />
      <point x="406" y="570" />
      <point x="355" y="570" type="qcurve" />
      <point x="302" y="570" />
      <point x="254" y="538" />
      <point x="254" y="515" type="qcurve" />
      <point x="254" y="495" />
      <point x="287" y="463" />
      <point x="370" y="446" />
      <point x="443" y="446" type="qcurve" />
      <point x="477" y="446" type="line" />
      <point x="477" y="296" type="line" />
      <point x="431" y="296" type="line" />
      <point x="338" y="296" />
      <point x="230" y="262" />
      <point x="230" y="221" type="qcurve" />
      <point x="230" y="185" />
      <point x="293" y="141" />
      <point x="379" y="141" type="qcurve" />
      <point x="412" y="141" />
      <point x="486" y="152" />
      <point x="558" y="173" />
      <point x="587" y="188" type="qcurve" />
      <point x="587" y="26" type="line" />
      <point x="543" y="8" />
      <point x="415" y="-12" />
      <point x="330" y="-12" type="qcurve" />
      <point x="227" y="-12" />
      <point x="97" y="43" />
      <point x="36" y="137" />
      <point x="36" y="197" type="qcurve" />
      <point x="36" y="273" />
      <point x="145" y="367" />
      <point x="240" y="371" type="qcurve" />
      <point x="240" y="374" type="line" />
      <point x="190" y="380" />
      <point x="111" y="416" />
      <point x="65" y="484" />
      <point x="65" y="536" type="qcurve" />
      <point x="65" y="592" />
      <point x="125" y="677" />
      <point x="244" y="726" />
    </contour>
  </outline>
</glyph>
<glyph name="uni0191" format="2">
  <unicode hex="0191" />
  <advance width="704" />
  <outline>
    <contour>
      <point x="213" y="-242" type="qcurve" />
      <point x="103" y="-242" />
      <point x="-12" y="-138" />
      <point x="-12" y="-50" type="qcurve" />
      <point x="-12" y="-18" />
      <point x="7" y="34" />
      <point x="20" y="52" type="qcurve" />
      <point x="156" y="4" type="line" />
      <point x="149" y="-12" />
      <point x="142" y="-37" />
      <point x="142" y="-53" type="qcurve" />
      <point x="142" y="-79" />
      <point x="171" y="-106" />
      <point x="193" y="-106" type="qcurve" />
      <point x="218" y="-106" />
      <point x="247" y="-70" />
      <point x="247" y="-35" type="qcurve" />
      <point x="247" y="714" type="line" />
      <point x="644" y="714" type="line" />
      <point x="644" y="555" type="line" />
      <point x="437" y="555" type="line" />
      <point x="437" y="444" type="line" />
      <point x="627" y="444" type="line" />
      <point x="627" y="285" type="line" />
      <point x="437" y="285" type="line" />
      <point x="437" y="-32" type="line" />
      <point x="437" y="-104" />
      <point x="377" y="-197" />
      <point x="275" y="-242" />
    </contour>
  </outline>
</glyph>
<glyph name="fhook" format="2">
  <unicode hex="0192" />
  <advance width="553" />
  <outline>
    <contour>
      <point x="204" y="-242" type="qcurve" />
      <point x="98" y="-242" />
      <point x="-5" y="-143" />
      <point x="-5" y="-59" type="qcurve" />
      <point x="-5" y="-27" />
      <point x="12" y="23" />
      <point x="22" y="40" type="qcurve" />
      <point x="162" y="-7" type="line" />
      <point x="155" y="-22" />
      <point x="149" y="-47" />
      <point x="149" y="-62" type="qcurve" />
      <point x="149" y="-84" />
      <point x="172" y="-106" />
      <point x="189" y="-106" type="qcurve" />
      <point x="211" y="-106" />
      <point x="235" y="-73" />
      <point x="235" y="-41" type="qcurve" />
      <point x="235" y="410" type="line" />
      <point x="162" y="410" type="line" />
      <point x="162" y="504" type="line" />
      <point x="239" y="551" type="line" />
      <point x="239" y="560" type="line" />
      <point x="239" y="632" />
      <point x="277" y="722" />
      <point x="360" y="765" />
      <point x="427" y="765" type="qcurve" />
      <point x="470" y="765" />
      <point x="540" y="752" />
      <point x="578" y="739" type="qcurve" />
      <point x="537" y="615" type="line" />
      <point x="523" y="619" />
      <point x="488" y="625" />
      <point x="468" y="625" type="qcurve" />
      <point x="446" y="625" />
      <point x="426" y="598" />
      <point x="426" y="568" type="qcurve" />
      <point x="426" y="553" type="line" />
      <point x="544" y="553" type="line" />
      <point x="544" y="410" type="line" />
      <point x="426" y="410" type="line" />
      <point x="426" y="-40" type="line" />
      <point x="426" y="-111" />
      <point x="366" y="-201" />
      <point x="266" y="-242" />
    </contour>
  </outline>
</glyph>
<glyph name="uni0193" format="2">
  <unicode hex="0193" />
  <advance width="724" />
  <outline>
    <contour>
      <point x="673" y="888" type="qcurve" />
      <point x="697" y="888" />
      <point x="741" y="877" />
      <point x="749" y="872" type="qcurve" />
      <point x="749" y="725" type="line" />
      <point x="740" y="728" />
      <point x="710" y="735" />
      <point x="693" y="735" type="qcurve" />
      <point x="671" y="735" />
      <point x="648" y="712" />
      <point x="648" y="684" type="qcurve" />
      <point x="648" y="666" type="line" />
      <point x="583" y="524" type="line" />
      <point x="556" y="538" />
      <point x="477" y="561" />
      <point x="433" y="561" type="qcurve" />
      <point x="381" y="561" />
      <point x="302" y="510" />
      <point x="258" y="417" />
      <point x="258" y="354" type="qcurve" />
      <point x="258" y="301" />
      <point x="281" y="209" />
      <point x="338" y="153" />
      <point x="388" y="153" type="qcurve" />
      <point x="412" y="153" />
      <point x="439" y="156" />
      <point x="452" y="155" type="qcurve" />
      <point x="452" y="258" type="line" />
      <point x="352" y="258" type="line" />
      <point x="352" y="419" type="line" />
      <point x="644" y="419" type="line" />
      <point x="644" y="30" type="line" />
      <point x="586" y="12" />
      <point x="462" y="-10" />
      <point x="380" y="-10" type="qcurve" />
      <point x="277" y="-10" />
      <point x="132" y="73" />
      <point x="56" y="237" />
      <point x="56" y="359" type="qcurve" />
      <point x="56" y="475" />
      <point x="144" y="638" />
      <point x="312" y="724" />
      <point x="433" y="724" type="qcurve" />
      <point x="448" y="724" />
      <point x="478" y="723" />
      <point x="493" y="722" type="qcurve" />
      <point x="493" y="714" type="line" />
      <point x="493" y="776" />
      <point x="543" y="852" />
      <point x="625" y="888" />
    </contour>
  </outline>
</glyph>
<glyph name="uni0194" format="2">
  <unicode hex="0194" />
  <advance width="672" />
  <outline>
    <contour>
      <point x="334" y="-240" type="qcurve" />
      <point x="251" y="-240" />
      <point x="163" y="-148" />
      <point x="163" y="-69" type="qcurve" />
      <point x="163" y="-31" />
      <point x="185" y="43" />
      <point x="220" y="116" />
      <point x="239" y="153" type="qcurve" />
      <point x="0" y="714" type="line" />
      <point x="206" y="714" type="line" />
      <point x="301" y="443" type="line" />
      <point x="309" y="421" />
      <point x="321" y="384" />
      <point x="331" y="347" />
      <point x="335" y="325" type="qcurve" />
      <point x="341" y="348" />
      <point x="352" y="384" />
      <point x="365" y="420" />
      <point x="373" y="441" type="qcurve" />
      <point x="480" y="714" type="line" />
      <point x="686" y="714" type="line" />
      <point x="427" y="150" type="line" />
      <point x="447" y="117" />
      <point x="484" y="47" />
      <point x="508" y="-28" />
      <point x="508" y="-70" type="qcurve" />
      <point x="508" y="-144" />
      <point x="417" y="-240" />
    </contour>
    <contour>
      <point x="335" y="-106" type="qcurve" />
      <point x="349" y="-106" />
      <point x="364" y="-84" />
      <point x="364" y="-60" type="qcurve" />
      <point x="364" y="-40" />
      <point x="349" y="10" />
      <point x="335" y="35" type="qcurve" />
      <point x="322" y="12" />
      <point x="307" y="-38" />
      <point x="307" y="-61" type="qcurve" />
      <point x="307" y="-83" />
      <point x="322" y="-106" />
    </contour>
  </outline>
</glyph>
<glyph name="uni0195" format="2">
  <unicode hex="0195" />
  <advance width="1021" />
  <outline>
    <contour>
      <point x="683" y="-15" type="qcurve" />
      <point x="588" y="-15" />
      <point x="469" y="32" />
      <point x="414" y="130" />
      <point x="414" y="207" type="qcurve" />
      <point x="414" y="308" type="line" />
      <point x="414" y="357" />
      <point x="383" y="410" />
      <point x="351" y="410" type="qcurve" />
      <point x="319" y="410" />
      <point x="282" y="370" />
      <point x="267" y="294" />
      <point x="267" y="241" type="qcurve" />
      <point x="267" y="0" type="line" />
      <point x="73" y="0" type="line" />
      <point x="73" y="760" type="line" />
      <point x="267" y="760" type="line" />
      <point x="267" y="645" type="line" />
      <point x="267" y="606" />
      <point x="263" y="527" />
      <point x="258" y="488" type="qcurve" />
      <point x="268" y="488" type="line" />
      <point x="285" y="513" />
      <point x="329" y="546" />
      <point x="382" y="563" />
      <point x="412" y="563" type="qcurve" />
      <point x="468" y="563" />
      <point x="557" y="519" />
      <point x="608" y="427" />
      <point x="608" y="353" type="qcurve" />
      <point x="608" y="238" type="line" />
      <point x="608" y="189" />
      <point x="645" y="140" />
      <point x="680" y="140" type="qcurve" />
      <point x="721" y="140" />
      <point x="756" y="199" />
      <point x="756" y="272" type="qcurve" />
      <point x="756" y="548" type="line" />
      <point x="951" y="548" type="line" />
      <point x="951" y="255" type="line" />
      <point x="951" y="116" />
      <point x="818" y="-15" />
    </contour>
  </outline>
</glyph>
<glyph name="uni0196" format="2">
  <unicode hex="0196" />
  <advance width="442" />
  <outline>
    <contour>
      <point x="285" y="-10" type="qcurve" />
      <point x="230" y="-10" />
      <point x="138" y="25" />
      <point x="83" y="114" />
      <point x="83" y="196" type="qcurve" />
      <point x="83" y="714" type="line" />
      <point x="290" y="714" type="line" />
      <point x="290" y="211" type="line" />
      <point x="290" y="185" />
      <point x="322" y="153" />
      <point x="344" y="153" type="qcurve" />
      <point x="371" y="153" />
      <point x="411" y="163" />
      <point x="434" y="172" type="qcurve" />
      <point x="434" y="20" type="line" />
      <point x="408" y="7" />
      <point x="330" y="-10" />
    </contour>
  </outline>
</glyph>
<glyph name="uni0197" format="2">
  <unicode hex="0197" />
  <advance width="427" />
  <outline>
    <contour>
      <point x="405" y="714" type="line" />
      <point x="405" y="604" type="line" />
      <point x="312" y="550" type="line" />
      <point x="312" y="432" type="line" />
      <point x="405" y="432" type="line" />
      <point x="405" y="270" type="line" />
      <point x="312" y="270" type="line" />
      <point x="312" y="164" type="line" />
      <point x="405" y="110" type="line" />
      <point x="405" y="0" type="line" />
      <point x="23" y="0" type="line" />
      <point x="23" y="110" type="line" />
      <point x="115" y="164" type="line" />
      <point x="115" y="270" type="line" />
      <point x="23" y="270" type="line" />
      <point x="23" y="432" type="line" />
      <point x="115" y="432" type="line" />
      <point x="115" y="550" type="line" />
      <point x="23" y="604" type="line" />
      <point x="23" y="714" type="line" />
    </contour>
  </outline>
</glyph>
<glyph name="uni0198" format="2">
  <unicode hex="0198" />
  <advance width="701" />
  <outline>
    <contour>
      <point x="585" y="727" type="qcurve" />
      <point x="617" y="727" />
      <point x="664" y="715" />
      <point x="677" y="708" type="qcurve" />
      <point x="677" y="557" type="line" />
      <point x="668" y="561" />
      <point x="641" y="568" />
      <point x="624" y="568" type="qcurve" />
      <point x="602" y="568" />
      <point x="565" y="543" />
      <point x="555" y="528" type="qcurve" />
      <point x="471" y="392" type="line" />
      <point x="701" y="0" type="line" />
      <point x="479" y="0" type="line" />
      <point x="332" y="267" type="line" />
      <point x="281" y="238" type="line" />
      <point x="281" y="0" type="line" />
      <point x="85" y="0" type="line" />
      <point x="85" y="714" type="line" />
      <point x="281" y="714" type="line" />
      <point x="281" y="404" type="line" />
      <point x="294" y="428" />
      <point x="325" y="484" />
      <point x="339" y="508" type="qcurve" />
      <point x="369" y="558" type="line" />
      <point x="397" y="605" />
      <point x="459" y="681" />
      <point x="536" y="727" />
    </contour>
  </outline>
</glyph>
<glyph name="uni0199" format="2">
  <unicode hex="0199" />
  <advance width="681" />
  <outline>
    <contour>
      <point x="275" y="768" type="qcurve" />
      <point x="302" y="768" />
      <point x="352" y="755" />
      <point x="363" y="750" type="qcurve" />
      <point x="363" y="605" type="line" />
      <point x="356" y="608" />
      <point x="325" y="615" />
      <point x="308" y="615" type="qcurve" />
      <point x="289" y="615" />
      <point x="267" y="595" />
      <point x="267" y="569" type="qcurve" />
      <point x="267" y="439" type="line" />
      <point x="267" y="411" />
      <point x="261" y="353" />
      <point x="257" y="326" type="qcurve" />
      <point x="259" y="326" type="line" />
      <point x="268" y="341" />
      <point x="289" y="372" />
      <point x="313" y="403" />
      <point x="326" y="416" type="qcurve" />
      <point x="453" y="553" type="line" />
      <point x="670" y="553" type="line" />
      <point x="450" y="311" type="line" />
      <point x="681" y="0" type="line" />
      <point x="458" y="0" type="line" />
      <point x="321" y="200" type="line" />
      <point x="267" y="161" type="line" />
      <point x="267" y="0" type="line" />
      <point x="73" y="0" type="line" />
      <point x="73" y="572" type="line" />
      <point x="73" y="645" />
      <point x="124" y="730" />
      <point x="216" y="768" />
    </contour>
  </outline>
</glyph>
<glyph name="uni019A" format="2">
  <unicode hex="019A" />
  <advance width="323" />
  <outline>
    <contour>
      <point x="66" y="0" type="line" />
      <point x="66" y="298" type="line" />
      <point x="7" y="298" type="line" />
      <point x="7" y="430" type="line" />
      <point x="66" y="430" type="line" />
      <point x="66" y="760" type="line" />
      <point x="257" y="760" type="line" />
      <point x="257" y="430" type="line" />
      <point x="317" y="430" type="line" />
      <point x="317" y="298" type="line" />
      <point x="257" y="298" type="line" />
      <point x="257" y="0" type="line" />
    </contour>
  </outline>
</glyph>
<glyph name="uni019B" format="2">
  <unicode hex="019B" />
  <advance width="665" />
  <outline>
    <contour>
      <point x="0" y="0" type="line" />
      <point x="238" y="516" type="line" />
      <point x="236" y="522" type="line" />
      <point x="139" y="492" type="line" />
      <point x="107" y="592" type="line" />
      <point x="185" y="613" type="line" />
      <point x="177" y="622" />
      <point x="145" y="631" />
      <point x="127" y="631" type="qcurve" />
      <point x="111" y="631" />
      <point x="83" y="627" />
      <point x="67" y="623" type="qcurve" />
      <point x="67" y="758" type="line" />
      <point x="76" y="760" />
      <point x="110" y="764" />
      <point x="147" y="766" />
      <point x="159" y="766" type="qcurve" />
      <point x="208" y="766" />
      <point x="283" y="748" />
      <point x="340" y="707" />
      <point x="360" y="673" type="qcurve" />
      <point x="448" y="703" type="line" />
      <point x="480" y="598" type="line" />
      <point x="407" y="575" type="line" />
      <point x="535" y="217" type="line" />
      <point x="553" y="167" />
      <point x="589" y="140" />
      <point x="616" y="140" type="qcurve" />
      <point x="627" y="140" />
      <point x="647" y="143" />
      <point x="656" y="145" type="qcurve" />
      <point x="656" y="9" type="line" />
      <point x="643" y="4" />
      <point x="598" y="-7" />
      <point x="562" y="-7" type="qcurve" />
      <point x="510" y="-7" />
      <point x="439" y="25" />
      <point x="392" y="87" />
      <point x="376" y="132" type="qcurve" />
      <point x="345" y="219" type="line" />
      <point x="340" y="234" />
      <point x="331" y="260" />
      <point x="325" y="283" />
      <point x="321" y="303" />
      <point x="319" y="312" type="qcurve" />
      <point x="315" y="312" type="line" />
      <point x="308" y="288" />
      <point x="293" y="241" />
      <point x="286" y="224" type="qcurve" />
      <point x="198" y="0" type="line" />
    </contour>
  </outline>
</glyph>
<glyph name="uni019C" format="2">
  <unicode hex="019C" />
  <advance width="1057" />
  <outline>
    <contour>
      <point x="286" y="-10" type="qcurve" />
      <point x="228" y="-10" />
      <point x="136" y="30" />
      <point x="83" y="117" />
      <point x="83" y="188" type="qcurve" />
      <point x="83" y="714" type="line" />
      <point x="280" y="714" type="line" />
      <point x="280" y="249" type="line" />
      <point x="280" y="203" />
      <point x="308" y="153" />
      <point x="336" y="153" type="qcurve" />
      <point x="370" y="153" />
      <point x="409" y="190" />
      <point x="426" y="258" />
      <point x="426" y="304" type="qcurve" />
      <point x="426" y="714" type="line" />
      <point x="622" y="714" type="line" />
      <point x="622" y="249" type="line" />
      <point x="622" y="202" />
      <point x="649" y="153" />
      <point x="679" y="153" type="qcurve" />
      <point x="715" y="153" />
      <point x="754" y="193" />
      <point x="769" y="268" />
      <point x="769" y="318" type="qcurve" />
      <point x="769" y="714" type="line" />
      <point x="967" y="714" type="line" />
      <point x="967" y="0" type="line" />
      <point x="819" y="0" type="line" />
      <point x="793" y="74" type="line" />
      <point x="782" y="74" type="line" />
      <point x="763" y="46" />
      <point x="708" y="8" />
      <point x="646" y="-10" />
      <point x="614" y="-10" type="qcurve" />
      <point x="561" y="-10" />
      <point x="482" y="31" />
      <point x="455" y="69" type="qcurve" />
      <point x="446" y="69" type="line" />
      <point x="417" y="29" />
      <point x="333" y="-10" />
    </contour>
  </outline>
</glyph>
<glyph name="uni019D" format="2">
  <unicode hex="019D" />
  <advance width="854" />
  <outline>
    <contour>
      <point x="63" y="-267" type="qcurve" />
      <point x="35" y="-267" />
      <point x="-7" y="-254" />
      <point x="-18" y="-250" type="qcurve" />
      <point x="-18" y="-105" type="line" />
      <point x="-11" y="-107" />
      <point x="20" y="-115" />
      <point x="37" y="-115" type="qcurve" />
      <point x="57" y="-115" />
      <point x="85" y="-89" />
      <point x="85" y="-61" type="qcurve" />
      <point x="85" y="714" type="line" />
      <point x="339" y="714" type="line" />
      <point x="599" y="223" type="line" />
      <point x="602" y="223" type="line" />
      <point x="602" y="231" />
      <point x="599" y="277" />
      <point x="596" y="340" />
      <point x="594" y="406" />
      <point x="594" y="434" type="qcurve" />
      <point x="594" y="714" type="line" />
      <point x="769" y="714" type="line" />
      <point x="769" y="0" type="line" />
      <point x="513" y="0" type="line" />
      <point x="253" y="498" type="line" />
      <point x="249" y="498" type="line" />
      <point x="251" y="479" />
      <point x="255" y="410" />
      <point x="259" y="324" />
      <point x="259" y="279" type="qcurve" />
      <point x="259" y="-68" type="line" />
      <point x="259" y="-139" />
      <point x="209" y="-227" />
      <point x="121" y="-267" />
    </contour>
  </outline>
</glyph>
<glyph name="Ohorn" format="2">
  <unicode hex="01A0" />
  <advance width="845" />
  <outline>
    <contour>
      <point x="746" y="358" type="qcurve" />
      <point x="746" y="275" />
      <point x="706" y="140" />
      <point x="622" y="42" />
      <point x="490" y="-10" />
      <point x="398" y="-10" type="qcurve" />
      <point x="308" y="-10" />
      <point x="177" y="42" />
      <point x="92" y="140" />
      <point x="51" y="275" />
      <point x="51" y="359" type="qcurve" />
      <point x="51" y="470" />
      <point x="126" y="635" />
      <point x="281" y="725" />
      <point x="401" y="725" type="qcurve" />
      <point x="490" y="725" />
      <point x="622" y="676" />
      <point x="663" y="630" type="qcurve" />
      <point x="672" y="646" />
      <point x="686" y="683" />
      <point x="695" y="730" />
      <point x="695" y="760" type="qcurve" />
      <point x="878" y="760" type="line" />
      <point x="885" y="749" type="line" />
      <point x="865" y="652" />
      <point x="790" y="548" />
      <point x="727" y="521" type="qcurve" />
      <point x="737" y="484" />
      <point x="746" y="404" />
    </contour>
    <contour>
      <point x="254" y="358" type="qcurve" />
      <point x="254" y="294" />
      <point x="284" y="201" />
      <point x="347" y="151" />
      <point x="398" y="151" type="qcurve" />
      <point x="451" y="151" />
      <point x="514" y="201" />
      <point x="543" y="294" />
      <point x="543" y="358" type="qcurve" />
      <point x="543" y="456" />
      <point x="477" y="567" />
      <point x="399" y="567" type="qcurve" />
      <point x="348" y="567" />
      <point x="284" y="517" />
      <point x="254" y="423" />
    </contour>
  </outline>
</glyph>
<glyph name="ohorn" format="2">
  <unicode hex="01A1" />
  <advance width="722" />
  <outline>
    <contour>
      <point x="594" y="278" type="qcurve" />
      <point x="594" y="186" />
      <point x="527" y="57" />
      <point x="403" y="-10" />
      <point x="317" y="-10" type="qcurve" />
      <point x="237" y="-10" />
      <point x="113" y="57" />
      <point x="42" y="186" />
      <point x="42" y="278" type="qcurve" />
      <point x="42" y="415" />
      <point x="190" y="563" />
      <point x="320" y="563" type="qcurve" />
      <point x="376" y="563" />
      <point x="480" y="530" />
      <point x="516" y="497" type="qcurve" />
      <point x="532" y="505" />
      <point x="555" y="542" />
      <point x="567" y="599" />
      <point x="567" y="635" type="qcurve" />
      <point x="751" y="635" type="line" />
      <point x="758" y="624" type="line" />
      <point x="749" y="574" />
      <point x="715" y="485" />
      <point x="643" y="418" />
      <point x="576" y="400" type="qcurve" />
      <point x="585" y="373" />
      <point x="594" y="313" />
    </contour>
    <contour>
      <point x="237" y="278" type="qcurve" />
      <point x="237" y="233" />
      <point x="253" y="173" />
      <point x="290" y="142" />
      <point x="319" y="142" type="qcurve" />
      <point x="348" y="142" />
      <point x="383" y="173" />
      <point x="400" y="233" />
      <point x="400" y="278" type="qcurve" />
      <point x="400" y="323" />
      <point x="384" y="382" />
      <point x="348" y="411" />
      <point x="318" y="411" type="qcurve" />
      <point x="275" y="411" />
      <point x="237" y="346" />
    </contour>
  </outline>
</glyph>
<glyph name="uni01A2" format="2">
  <unicode hex="01A2" />
  <advance width="1161" />
  <outline>
    <contour>
      <point x="739" y="358" type="qcurve" />
      <point x="739" y="273" />
      <point x="699" y="137" />
      <point x="616" y="41" />
      <point x="487" y="-10" />
      <point x="397" y="-10" type="qcurve" />
      <point x="308" y="-10" />
      <point x="179" y="41" />
      <point x="96" y="137" />
      <point x="56" y="274" />
      <point x="56" y="359" type="qcurve" />
      <point x="56" y="470" />
      <point x="127" y="635" />
      <point x="279" y="725" />
      <point x="398" y="725" type="qcurve" />
      <point x="480" y="725" />
      <point x="602" y="681" />
      <point x="643" y="640" type="qcurve" />
      <point x="683" y="676" />
      <point x="786" y="725" />
      <point x="859" y="725" type="qcurve" />
      <point x="922" y="725" />
      <point x="1022" y="675" />
      <point x="1080" y="568" />
      <point x="1080" y="481" type="qcurve" />
      <point x="1080" y="0" type="line" />
      <point x="883" y="0" type="line" />
      <point x="883" y="465" type="line" />
      <point x="883" y="512" />
      <point x="842" y="563" />
      <point x="802" y="563" type="qcurve" />
      <point x="765" y="563" />
      <point x="724" y="548" />
      <point x="709" y="540" type="qcurve" />
      <point x="725" y="501" />
      <point x="739" y="409" />
    </contour>
    <contour>
      <point x="262" y="358" type="qcurve" />
      <point x="262" y="293" />
      <point x="290" y="201" />
      <point x="349" y="153" />
      <point x="397" y="153" type="qcurve" />
      <point x="447" y="153" />
      <point x="506" y="201" />
      <point x="533" y="293" />
      <point x="533" y="358" type="qcurve" />
      <point x="533" y="421" />
      <point x="509" y="513" />
      <point x="450" y="564" />
      <point x="398" y="564" type="qcurve" />
      <point x="349" y="564" />
      <point x="289" y="516" />
      <point x="262" y="424" />
    </contour>
  </outline>
</glyph>
<glyph name="uni01A3" format="2">
  <unicode hex="01A3" />
  <advance width="964" />
  <outline>
    <contour>
      <point x="566" y="278" type="qcurve" />
      <point x="566" y="206" />
      <point x="528" y="98" />
      <point x="458" y="26" />
      <point x="361" y="-10" />
      <point x="301" y="-10" type="qcurve" />
      <point x="245" y="-10" />
      <point x="149" y="25" />
      <point x="78" y="96" />
      <point x="39" y="204" />
      <point x="39" y="278" type="qcurve" />
      <point x="39" y="372" />
      <point x="105" y="499" />
      <point x="224" y="563" />
      <point x="304" y="563" type="qcurve" />
      <point x="365" y="563" />
      <point x="463" y="522" />
      <point x="500" y="478" type="qcurve" />
      <point x="538" y="526" />
      <point x="634" y="563" />
      <point x="689" y="563" type="qcurve" />
      <point x="751" y="563" />
      <point x="846" y="521" />
      <point x="900" y="430" />
      <point x="900" y="356" type="qcurve" />
      <point x="900" y="-240" type="line" />
      <point x="706" y="-240" type="line" />
      <point x="706" y="303" type="line" />
      <point x="706" y="354" />
      <point x="670" y="410" />
      <point x="629" y="410" type="qcurve" />
      <point x="603" y="410" />
      <point x="567" y="397" />
      <point x="555" y="381" type="qcurve" />
      <point x="560" y="358" />
      <point x="566" y="307" />
    </contour>
    <contour>
      <point x="237" y="278" type="qcurve" />
      <point x="237" y="231" />
      <point x="250" y="171" />
      <point x="279" y="144" />
      <point x="303" y="144" type="qcurve" />
      <point x="326" y="144" />
      <point x="355" y="171" />
      <point x="368" y="230" />
      <point x="368" y="278" type="qcurve" />
      <point x="368" y="326" />
      <point x="355" y="383" />
      <point x="326" y="409" />
      <point x="302" y="409" type="qcurve" />
      <point x="265" y="409" />
      <point x="237" y="346" />
    </contour>
  </outline>
</glyph>
<glyph name="uni01A4" format="2">
  <unicode hex="01A4" />
  <advance width="786" />
  <outline>
    <contour>
      <point x="228" y="0" type="line" />
      <point x="228" y="554" type="line" />
      <point x="202" y="554" type="line" />
      <point x="179" y="554" />
      <point x="156" y="527" />
      <point x="156" y="510" type="qcurve" />
      <point x="156" y="493" />
      <point x="163" y="473" />
      <point x="166" y="465" type="qcurve" />
      <point x="16" y="465" type="line" />
      <point x="12" y="472" />
      <point x="3" y="502" />
      <point x="3" y="524" type="qcurve" />
      <point x="3" y="575" />
      <point x="41" y="661" />
      <point x="130" y="714" />
      <point x="208" y="714" type="qcurve" />
      <point x="480" y="714" type="line" />
      <point x="623" y="714" />
      <point x="749" y="588" />
      <point x="749" y="483" type="qcurve" />
      <point x="749" y="440" />
      <point x="726" y="353" />
      <point x="665" y="280" />
      <point x="555" y="236" />
      <point x="469" y="236" type="qcurve" />
      <point x="424" y="236" type="line" />
      <point x="424" y="0" type="line" />
    </contour>
    <contour>
      <point x="453" y="396" type="line" />
      <point x="482" y="396" />
      <point x="527" y="415" />
      <point x="552" y="451" />
      <point x="552" y="477" type="qcurve" />
      <point x="552" y="516" />
      <point x="512" y="554" />
      <point x="471" y="554" type="qcurve" />
      <point x="424" y="554" type="line" />
      <point x="424" y="396" type="line" />
    </contour>
  </outline>
</glyph>
<glyph name="uni01A5" format="2">
  <unicode hex="01A5" />
  <advance width="650" />
  <outline>
    <contour>
      <point x="270" y="765" type="qcurve" />
      <point x="298" y="765" />
      <point x="345" y="753" />
      <point x="354" y="748" type="qcurve" />
      <point x="354" y="602" type="line" />
      <point x="350" y="604" />
      <point x="321" y="612" />
      <point x="304" y="612" type="qcurve" />
      <point x="288" y="612" />
      <point x="267" y="594" />
      <point x="267" y="573" type="qcurve" />
      <point x="267" y="567" type="line" />
      <point x="267" y="547" />
      <point x="263" y="513" />
      <point x="261" y="486" type="qcurve" />
      <point x="267" y="486" type="line" />
      <point x="281" y="506" />
      <point x="320" y="541" />
      <point x="375" y="563" />
      <point x="411" y="563" type="qcurve" />
      <point x="468" y="563" />
      <point x="558" y="498" />
      <point x="611" y="372" />
      <point x="611" y="278" type="qcurve" />
      <point x="611" y="180" />
      <point x="558" y="52" />
      <point x="468" y="-10" />
      <point x="412" y="-10" type="qcurve" />
      <point x="373" y="-10" />
      <point x="318" y="7" />
      <point x="282" y="33" />
      <point x="269" y="46" type="qcurve" />
      <point x="262" y="46" type="line" />
      <point x="265" y="41" />
      <point x="267" y="6" />
      <point x="267" y="-15" type="qcurve" />
      <point x="267" y="-240" type="line" />
      <point x="73" y="-240" type="line" />
      <point x="73" y="578" type="line" />
      <point x="73" y="647" />
      <point x="123" y="729" />
      <point x="212" y="765" />
    </contour>
    <contour>
      <point x="342" y="410" type="qcurve" />
      <point x="315" y="410" />
      <point x="283" y="386" />
      <point x="269" y="335" />
      <point x="267" y="296" type="qcurve" />
      <point x="267" y="280" type="line" />
      <point x="267" y="237" />
      <point x="282" y="177" />
      <point x="316" y="146" />
      <point x="345" y="146" type="qcurve" />
      <point x="368" y="146" />
      <point x="398" y="174" />
      <point x="413" y="234" />
      <point x="413" y="282" type="qcurve" />
      <point x="413" y="346" />
      <point x="380" y="410" />
    </contour>
  </outline>
</glyph>
<glyph name="uni01A6" format="2">
  <unicode hex="01A6" />
  <advance width="690" />
  <outline>
    <contour>
      <point x="483" y="-100" type="line" />
      <point x="319" y="157" type="line" />
      <point x="281" y="157" type="line" />
      <point x="281" y="0" type="line" />
      <point x="85" y="0" type="line" />
      <point x="85" y="714" type="line" />
      <point x="281" y="714" type="line" />
      <point x="281" y="614" type="line" />
      <point x="310" y="614" type="line" />
      <point x="411" y="614" />
      <point x="542" y="566" />
      <point x="606" y="467" />
      <point x="606" y="392" type="qcurve" />
      <point x="606" y="343" />
      <point x="567" y="271" />
      <point x="510" y="222" />
      <point x="482" y="205" type="qcurve" />
      <point x="700" y="-100" type="line" />
    </contour>
    <contour>
      <point x="291" y="316" type="line" />
      <point x="359" y="316" />
      <point x="409" y="353" />
      <point x="409" y="388" type="qcurve" />
      <point x="409" y="411" />
      <point x="387" y="440" />
      <point x="337" y="454" />
      <point x="295" y="454" type="qcurve" />
      <point x="281" y="454" type="line" />
      <point x="281" y="316" type="line" />
    </contour>
  </outline>
</glyph>
<glyph name="uni01A7" format="2">
  <unicode hex="01A7" />
  <advance width="554" />
  <outline>
    <contour>
      <point x="287" y="724" type="qcurve" />
      <point x="360" y="724" />
      <point x="463" y="676" />
      <point x="517" y="583" />
      <point x="517" y="517" type="qcurve" />
      <point x="517" y="466" />
      <point x="485" y="393" />
      <point x="433" y="343" />
      <point x="373" y="308" />
      <point x="345" y="294" type="qcurve" />
      <point x="311" y="278" />
      <point x="259" y="248" />
      <point x="230" y="217" />
      <point x="230" y="198" type="qcurve" />
      <point x="230" y="185" />
      <point x="241" y="163" />
      <point x="270" y="151" />
      <point x="297" y="151" type="qcurve" />
      <point x="348" y="151" />
      <point x="455" y="180" />
      <point x="513" y="202" type="qcurve" />
      <point x="513" y="42" type="line" />
      <point x="466" y="18" />
      <point x="348" y="-10" />
      <point x="285" y="-10" type="qcurve" />
      <point x="197" y="-10" />
      <point x="88" y="42" />
      <point x="39" y="136" />
      <point x="39" y="199" type="qcurve" />
      <point x="39" y="251" />
      <point x="73" y="333" />
      <point x="143" y="398" />
      <point x="196" y="423" type="qcurve" />
      <point x="245" y="445" />
      <point x="301" y="476" />
      <point x="325" y="506" />
      <point x="325" y="524" type="qcurve" />
      <point x="325" y="541" />
      <point x="300" y="561" />
      <point x="270" y="561" type="qcurve" />
      <point x="232" y="561" />
      <point x="153" y="538" />
      <point x="101" y="517" type="qcurve" />
      <point x="44" y="669" type="line" />
      <point x="99" y="694" />
      <point x="220" y="724" />
    </contour>
  </outline>
</glyph>
<glyph name="uni01A8" format="2">
  <unicode hex="01A8" />
  <advance width="511" />
  <outline>
    <contour>
      <point x="262" y="563" type="qcurve" />
      <point x="323" y="563" />
      <point x="421" y="529" />
      <point x="479" y="459" />
      <point x="479" y="405" type="qcurve" />
      <point x="479" y="360" />
      <point x="453" y="296" />
      <point x="391" y="248" />
      <point x="338" y="226" type="qcurve" />
      <point x="294" y="208" />
      <point x="248" y="184" />
      <point x="231" y="168" />
      <point x="229" y="158" />
      <point x="229" y="155" type="qcurve" />
      <point x="229" y="140" />
      <point x="259" y="128" />
      <point x="286" y="128" type="qcurve" />
      <point x="321" y="128" />
      <point x="412" y="147" />
      <point x="460" y="174" type="qcurve" />
      <point x="460" y="32" type="line" />
      <point x="414" y="7" />
      <point x="327" y="-10" />
      <point x="274" y="-10" type="qcurve" />
      <point x="157" y="-10" />
      <point x="38" y="77" />
      <point x="38" y="161" type="qcurve" />
      <point x="38" y="207" />
      <point x="70" y="276" />
      <point x="135" y="327" />
      <point x="182" y="345" type="qcurve" />
      <point x="232" y="364" />
      <point x="275" y="386" />
      <point x="286" y="399" />
      <point x="286" y="402" type="qcurve" />
      <point x="286" y="412" />
      <point x="261" y="423" />
      <point x="242" y="423" type="qcurve" />
      <point x="208" y="423" />
      <point x="141" y="399" />
      <point x="97" y="379" type="qcurve" />
      <point x="46" y="516" type="line" />
      <point x="100" y="542" />
      <point x="209" y="563" />
    </contour>
  </outline>
</glyph>
<glyph name="uni01AA" format="2">
  <unicode hex="01AA" />
  <advance width="443" />
  <outline>
    <contour>
      <point x="145" y="772" type="qcurve" />
      <point x="217" y="772" />
      <point x="301" y="722" />
      <point x="336" y="632" />
      <point x="336" y="572" type="qcurve" />
      <point x="336" y="-49" type="line" />
      <point x="336" y="-67" />
      <point x="365" y="-88" />
      <point x="387" y="-88" type="qcurve" />
      <point x="415" y="-88" />
      <point x="467" y="-77" />
      <point x="495" y="-68" type="qcurve" />
      <point x="495" y="-210" type="line" />
      <point x="468" y="-223" />
      <point x="387" y="-240" />
      <point x="340" y="-240" type="qcurve" />
      <point x="285" y="-240" />
      <point x="195" y="-208" />
      <point x="142" y="-124" />
      <point x="142" y="-46" type="qcurve" />
      <point x="142" y="525" type="line" />
      <point x="140" y="525" type="line" />
      <point x="61" y="525" />
      <point x="-10" y="598" />
      <point x="-10" y="654" type="qcurve" />
      <point x="-10" y="686" />
      <point x="25" y="740" />
      <point x="94" y="772" />
    </contour>
    <contour>
      <point x="117" y="673" type="qcurve" />
      <point x="111" y="673" />
      <point x="99" y="660" />
      <point x="99" y="652" type="qcurve" />
      <point x="99" y="641" />
      <point x="121" y="618" />
      <point x="140" y="618" type="qcurve" />
      <point x="142" y="618" type="line" />
      <point x="142" y="642" type="line" />
      <point x="142" y="657" />
      <point x="127" y="673" />
    </contour>
  </outline>
</glyph>
